<mxfile host="app.diagrams.net" modified="2024-05-29T14:44:14.080Z" agent="Mozilla/5.0 (Windows NT 10.0; Win64; x64) AppleWebKit/537.36 (KHTML, like Gecko) Chrome/121.0.0.0 Safari/537.36" etag="fOmuaQrOf63ELVb_7kzu" version="24.4.9" type="device" pages="4">
  <diagram name="Página-1" id="_S_w9w5pg14a1K505Iac">
    <mxGraphModel dx="2049" dy="1117" grid="1" gridSize="10" guides="1" tooltips="1" connect="1" arrows="1" fold="1" page="1" pageScale="1" pageWidth="827" pageHeight="1169" math="0" shadow="0">
      <root>
        <mxCell id="0" />
        <mxCell id="1" parent="0" />
        <mxCell id="9rAJPEWSSfQrV0Wu2TRW-1" value="" style="shape=ext;double=1;rounded=1;whiteSpace=wrap;html=1;" parent="1" vertex="1">
          <mxGeometry x="271" y="90" width="280" height="500" as="geometry" />
        </mxCell>
        <UserObject label="" treeRoot="1" id="9rAJPEWSSfQrV0Wu2TRW-6">
          <mxCell style="whiteSpace=wrap;html=1;align=center;treeFolding=1;treeMoving=1;newEdgeStyle={&quot;edgeStyle&quot;:&quot;elbowEdgeStyle&quot;,&quot;startArrow&quot;:&quot;none&quot;,&quot;endArrow&quot;:&quot;none&quot;};" parent="1" vertex="1">
            <mxGeometry x="370" y="240" width="160" height="30" as="geometry" />
          </mxCell>
        </UserObject>
        <mxCell id="9rAJPEWSSfQrV0Wu2TRW-7" value="NOME:" style="text;html=1;align=center;verticalAlign=middle;whiteSpace=wrap;rounded=0;fontStyle=1;fontFamily=Comic Sans MS;fontSize=15;" parent="1" vertex="1">
          <mxGeometry x="290" y="240" width="70" height="30" as="geometry" />
        </mxCell>
        <mxCell id="9rAJPEWSSfQrV0Wu2TRW-8" value="TELEFONE:" style="text;html=1;align=center;verticalAlign=middle;whiteSpace=wrap;rounded=0;fontFamily=Comic Sans MS;fontStyle=1;fontSize=14;" parent="1" vertex="1">
          <mxGeometry x="295" y="300" width="60" height="30" as="geometry" />
        </mxCell>
        <UserObject label="" treeRoot="1" id="9rAJPEWSSfQrV0Wu2TRW-9">
          <mxCell style="whiteSpace=wrap;html=1;align=center;treeFolding=1;treeMoving=1;newEdgeStyle={&quot;edgeStyle&quot;:&quot;elbowEdgeStyle&quot;,&quot;startArrow&quot;:&quot;none&quot;,&quot;endArrow&quot;:&quot;none&quot;};" parent="1" vertex="1">
            <mxGeometry x="370" y="300" width="160" height="30" as="geometry" />
          </mxCell>
        </UserObject>
        <mxCell id="9rAJPEWSSfQrV0Wu2TRW-10" value="ENDEREÇO:" style="text;html=1;align=center;verticalAlign=middle;whiteSpace=wrap;rounded=0;fontFamily=Comic Sans MS;fontStyle=1;fontSize=14;" parent="1" vertex="1">
          <mxGeometry x="295" y="360" width="60" height="30" as="geometry" />
        </mxCell>
        <UserObject label="" treeRoot="1" id="9rAJPEWSSfQrV0Wu2TRW-11">
          <mxCell style="whiteSpace=wrap;html=1;align=center;treeFolding=1;treeMoving=1;newEdgeStyle={&quot;edgeStyle&quot;:&quot;elbowEdgeStyle&quot;,&quot;startArrow&quot;:&quot;none&quot;,&quot;endArrow&quot;:&quot;none&quot;};" parent="1" vertex="1">
            <mxGeometry x="370" y="360" width="160" height="30" as="geometry" />
          </mxCell>
        </UserObject>
        <mxCell id="9rAJPEWSSfQrV0Wu2TRW-16" value="&lt;h1 style=&quot;font-size: 18px;&quot;&gt;&lt;font style=&quot;font-size: 18px;&quot; face=&quot;Verdana&quot;&gt;CADASTRO&amp;nbsp;&lt;/font&gt;&lt;/h1&gt;&lt;h1 style=&quot;font-size: 18px;&quot;&gt;&lt;font style=&quot;font-size: 18px;&quot;&gt;DE CLIENTE&lt;/font&gt;&lt;/h1&gt;" style="ellipse;shape=cloud;whiteSpace=wrap;html=1;fontStyle=2;fontSize=18;fontFamily=Verdana;fillColor=#FFE6CC;strokeColor=#FF8000;" parent="1" vertex="1">
          <mxGeometry x="302" y="110" width="218" height="120" as="geometry" />
        </mxCell>
        <mxCell id="9rAJPEWSSfQrV0Wu2TRW-17" value="" style="shape=ext;double=1;rounded=1;whiteSpace=wrap;html=1;" parent="1" vertex="1">
          <mxGeometry x="274" y="630" width="286" height="500" as="geometry" />
        </mxCell>
        <mxCell id="9rAJPEWSSfQrV0Wu2TRW-19" value="&lt;h1 style=&quot;font-size: 19px;&quot;&gt;&lt;br&gt;&lt;/h1&gt;" style="ellipse;shape=cloud;whiteSpace=wrap;html=1;fontSize=15;fillColor=#FFE6CC;strokeColor=#FF8000;fontFamily=Verdana;" parent="1" vertex="1">
          <mxGeometry x="302" y="632.5" width="199.5" height="110" as="geometry" />
        </mxCell>
        <mxCell id="9rAJPEWSSfQrV0Wu2TRW-22" value="Ana Luísa..." style="shape=ext;double=1;rounded=1;whiteSpace=wrap;html=1;" parent="1" vertex="1">
          <mxGeometry x="289" y="750" width="221" height="30" as="geometry" />
        </mxCell>
        <mxCell id="9rAJPEWSSfQrV0Wu2TRW-26" value="" style="shape=image;html=1;verticalLabelPosition=bottom;verticalAlign=top;imageAspect=1;aspect=fixed;image=https://cdn-icons-png.flaticon.com/512/2015/2015046.png;" parent="1" vertex="1">
          <mxGeometry x="520" y="750" width="30" height="30" as="geometry" />
        </mxCell>
        <mxCell id="9rAJPEWSSfQrV0Wu2TRW-28" value="" style="shape=ext;double=1;rounded=1;whiteSpace=wrap;html=1;" parent="1" vertex="1">
          <mxGeometry x="580" y="240" width="260" height="110" as="geometry" />
        </mxCell>
        <mxCell id="9rAJPEWSSfQrV0Wu2TRW-29" value="&lt;font style=&quot;font-size: 16px;&quot; face=&quot;Verdana&quot;&gt;&lt;i style=&quot;font-size: 16px;&quot;&gt;&lt;b style=&quot;font-size: 16px;&quot;&gt;APAGAR CLIENTE?&lt;/b&gt;&lt;/i&gt;&lt;/font&gt;" style="text;html=1;align=center;verticalAlign=middle;whiteSpace=wrap;rounded=0;fontSize=16;" parent="1" vertex="1">
          <mxGeometry x="625" y="250" width="170" height="40" as="geometry" />
        </mxCell>
        <mxCell id="9rAJPEWSSfQrV0Wu2TRW-30" value="&lt;font face=&quot;Verdana&quot;&gt;&lt;b style=&quot;&quot;&gt;SIM&lt;/b&gt;&lt;/font&gt;" style="shape=ext;double=1;rounded=1;whiteSpace=wrap;html=1;fillColor=#d5e8d4;strokeColor=#82b366;" parent="1" vertex="1">
          <mxGeometry x="630" y="290" width="70" height="40" as="geometry" />
        </mxCell>
        <mxCell id="9rAJPEWSSfQrV0Wu2TRW-31" value="&lt;font face=&quot;Verdana&quot;&gt;&lt;b&gt;NÃO&lt;/b&gt;&lt;/font&gt;" style="shape=ext;double=1;rounded=1;whiteSpace=wrap;html=1;fillColor=#f8cecc;strokeColor=#b85450;" parent="1" vertex="1">
          <mxGeometry x="720" y="290" width="70" height="40" as="geometry" />
        </mxCell>
        <mxCell id="9rAJPEWSSfQrV0Wu2TRW-32" value="&lt;font face=&quot;Verdana&quot;&gt;&lt;b&gt;CONFIRMAR&lt;/b&gt;&lt;/font&gt;" style="shape=ext;double=1;rounded=1;whiteSpace=wrap;html=1;fillColor=#d5e8d4;strokeColor=#82b366;" parent="1" vertex="1">
          <mxGeometry x="340" y="430" width="139.5" height="40" as="geometry" />
        </mxCell>
        <mxCell id="9rAJPEWSSfQrV0Wu2TRW-35" value="&lt;ul style=&quot;font-size: 16px;&quot;&gt;&lt;li style=&quot;font-size: 16px;&quot;&gt;&lt;b&gt;Ana Luísa Alves&lt;/b&gt;&lt;/li&gt;&lt;/ul&gt;" style="text;strokeColor=none;fillColor=none;html=1;whiteSpace=wrap;verticalAlign=middle;overflow=hidden;fontSize=16;" parent="1" vertex="1">
          <mxGeometry x="274" y="790" width="211" height="40" as="geometry" />
        </mxCell>
        <mxCell id="9rAJPEWSSfQrV0Wu2TRW-36" value="" style="shape=image;html=1;verticalLabelPosition=bottom;verticalAlign=top;imageAspect=0;image=https://cdn-icons-png.flaticon.com/512/269/269074.png;" parent="1" vertex="1">
          <mxGeometry x="449.5" y="800" width="30" height="30" as="geometry" />
        </mxCell>
        <mxCell id="9rAJPEWSSfQrV0Wu2TRW-37" value="" style="shape=ext;double=1;rounded=1;whiteSpace=wrap;html=1;" parent="1" vertex="1">
          <mxGeometry x="580" y="630" width="286" height="500" as="geometry" />
        </mxCell>
        <mxCell id="9rAJPEWSSfQrV0Wu2TRW-40" value="" style="shape=ext;double=1;rounded=1;whiteSpace=wrap;html=1;" parent="1" vertex="1">
          <mxGeometry x="580" y="120" width="260" height="110" as="geometry" />
        </mxCell>
        <mxCell id="9rAJPEWSSfQrV0Wu2TRW-41" value="ATUALIZAR DADOS&amp;nbsp;&lt;div style=&quot;font-size: 16px;&quot;&gt;DO CLIENTE?&lt;/div&gt;" style="text;html=1;align=center;verticalAlign=middle;whiteSpace=wrap;rounded=0;fontFamily=Verdana;fontStyle=3;fontSize=16;" parent="1" vertex="1">
          <mxGeometry x="620" y="140" width="190" height="30" as="geometry" />
        </mxCell>
        <mxCell id="9rAJPEWSSfQrV0Wu2TRW-42" value="&lt;font face=&quot;Verdana&quot;&gt;&lt;b style=&quot;&quot;&gt;SIM&lt;/b&gt;&lt;/font&gt;" style="shape=ext;double=1;rounded=1;whiteSpace=wrap;html=1;fillColor=#d5e8d4;strokeColor=#82b366;" parent="1" vertex="1">
          <mxGeometry x="630" y="180" width="70" height="40" as="geometry" />
        </mxCell>
        <mxCell id="9rAJPEWSSfQrV0Wu2TRW-44" value="&lt;font face=&quot;Verdana&quot;&gt;&lt;b&gt;NÃO&lt;/b&gt;&lt;/font&gt;" style="shape=ext;double=1;rounded=1;whiteSpace=wrap;html=1;fillColor=#f8cecc;strokeColor=#b85450;" parent="1" vertex="1">
          <mxGeometry x="720" y="180" width="70" height="40" as="geometry" />
        </mxCell>
        <mxCell id="9rAJPEWSSfQrV0Wu2TRW-45" value="" style="shape=ext;double=1;rounded=1;whiteSpace=wrap;html=1;" parent="1" vertex="1">
          <mxGeometry x="580" y="380" width="260" height="110" as="geometry" />
        </mxCell>
        <mxCell id="9rAJPEWSSfQrV0Wu2TRW-46" value="&lt;font face=&quot;Verdana&quot;&gt;CONFIRMAR?&lt;/font&gt;" style="text;html=1;align=center;verticalAlign=middle;whiteSpace=wrap;rounded=0;fontStyle=3;fontSize=19;fontFamily=Helvetica;" parent="1" vertex="1">
          <mxGeometry x="680" y="390" width="60" height="30" as="geometry" />
        </mxCell>
        <mxCell id="9rAJPEWSSfQrV0Wu2TRW-48" value="&lt;font face=&quot;Verdana&quot;&gt;&lt;b style=&quot;&quot;&gt;SIM&lt;/b&gt;&lt;/font&gt;" style="shape=ext;double=1;rounded=1;whiteSpace=wrap;html=1;fillColor=#d5e8d4;strokeColor=#82b366;" parent="1" vertex="1">
          <mxGeometry x="625" y="430" width="70" height="40" as="geometry" />
        </mxCell>
        <mxCell id="9rAJPEWSSfQrV0Wu2TRW-49" value="&lt;font face=&quot;Verdana&quot;&gt;&lt;b&gt;NÃO&lt;/b&gt;&lt;/font&gt;" style="shape=ext;double=1;rounded=1;whiteSpace=wrap;html=1;fillColor=#f8cecc;strokeColor=#b85450;" parent="1" vertex="1">
          <mxGeometry x="720" y="430" width="70" height="40" as="geometry" />
        </mxCell>
        <mxCell id="9rAJPEWSSfQrV0Wu2TRW-50" value="" style="shape=ext;double=1;rounded=1;whiteSpace=wrap;html=1;" parent="1" vertex="1">
          <mxGeometry x="866" y="240" width="204" height="230" as="geometry" />
        </mxCell>
        <mxCell id="9rAJPEWSSfQrV0Wu2TRW-51" value="DADOS INVÁLIDOS" style="text;html=1;align=center;verticalAlign=middle;whiteSpace=wrap;rounded=0;fontStyle=3;fontFamily=Verdana;fontSize=18;" parent="1" vertex="1">
          <mxGeometry x="876" y="260" width="194" height="50" as="geometry" />
        </mxCell>
        <mxCell id="9rAJPEWSSfQrV0Wu2TRW-53" value="" style="verticalLabelPosition=bottom;verticalAlign=top;html=1;shape=mxgraph.basic.x;fillColor=#FF0000;strokeColor=#b85450;" parent="1" vertex="1">
          <mxGeometry x="946" y="320" width="54" height="50" as="geometry" />
        </mxCell>
        <mxCell id="9rAJPEWSSfQrV0Wu2TRW-60" value="&lt;font face=&quot;Verdana&quot;&gt;&lt;b&gt;VOLTAR&lt;/b&gt;&lt;/font&gt;" style="shape=ext;double=1;rounded=1;whiteSpace=wrap;html=1;fillColor=#d5e8d4;strokeColor=#82b366;" parent="1" vertex="1">
          <mxGeometry x="903.25" y="400" width="139.5" height="40" as="geometry" />
        </mxCell>
        <mxCell id="9rAJPEWSSfQrV0Wu2TRW-68" value="NOME:" style="text;html=1;align=center;verticalAlign=middle;whiteSpace=wrap;rounded=0;fontStyle=1;fontFamily=Comic Sans MS;fontSize=15;" parent="1" vertex="1">
          <mxGeometry x="600" y="760" width="60" height="20" as="geometry" />
        </mxCell>
        <mxCell id="9rAJPEWSSfQrV0Wu2TRW-69" value="TELEFONE:" style="text;html=1;align=center;verticalAlign=middle;whiteSpace=wrap;rounded=0;fontFamily=Comic Sans MS;fontStyle=1;fontSize=14;" parent="1" vertex="1">
          <mxGeometry x="600" y="810" width="60" height="30" as="geometry" />
        </mxCell>
        <mxCell id="9rAJPEWSSfQrV0Wu2TRW-70" value="ENDEREÇO:" style="text;html=1;align=center;verticalAlign=middle;whiteSpace=wrap;rounded=0;fontFamily=Comic Sans MS;fontStyle=1;fontSize=14;" parent="1" vertex="1">
          <mxGeometry x="600" y="870" width="60" height="30" as="geometry" />
        </mxCell>
        <UserObject label="Rua PipipiPopopo, 111" treeRoot="1" id="9rAJPEWSSfQrV0Wu2TRW-72">
          <mxCell style="whiteSpace=wrap;html=1;align=center;treeFolding=1;treeMoving=1;newEdgeStyle={&quot;edgeStyle&quot;:&quot;elbowEdgeStyle&quot;,&quot;startArrow&quot;:&quot;none&quot;,&quot;endArrow&quot;:&quot;none&quot;};" parent="1" vertex="1">
            <mxGeometry x="675" y="870" width="160" height="30" as="geometry" />
          </mxCell>
        </UserObject>
        <UserObject label="(43) 99012-3456" treeRoot="1" id="9rAJPEWSSfQrV0Wu2TRW-73">
          <mxCell style="whiteSpace=wrap;html=1;align=center;treeFolding=1;treeMoving=1;newEdgeStyle={&quot;edgeStyle&quot;:&quot;elbowEdgeStyle&quot;,&quot;startArrow&quot;:&quot;none&quot;,&quot;endArrow&quot;:&quot;none&quot;};" parent="1" vertex="1">
            <mxGeometry x="675" y="810" width="160" height="30" as="geometry" />
          </mxCell>
        </UserObject>
        <UserObject label="Ana Luísa" treeRoot="1" id="9rAJPEWSSfQrV0Wu2TRW-74">
          <mxCell style="whiteSpace=wrap;html=1;align=center;treeFolding=1;treeMoving=1;newEdgeStyle={&quot;edgeStyle&quot;:&quot;elbowEdgeStyle&quot;,&quot;startArrow&quot;:&quot;none&quot;,&quot;endArrow&quot;:&quot;none&quot;};" parent="1" vertex="1">
            <mxGeometry x="675" y="755" width="160" height="30" as="geometry" />
          </mxCell>
        </UserObject>
        <mxCell id="9rAJPEWSSfQrV0Wu2TRW-75" value="" style="ellipse;shape=cloud;whiteSpace=wrap;html=1;fillColor=#FFE6CC;strokeColor=#FF8000;" parent="1" vertex="1">
          <mxGeometry x="593" y="632.5" width="260" height="105" as="geometry" />
        </mxCell>
        <mxCell id="9rAJPEWSSfQrV0Wu2TRW-76" value="&lt;font face=&quot;Verdana&quot;&gt;ATUALIZAR&amp;nbsp;&lt;/font&gt;&lt;div&gt;&lt;font face=&quot;Verdana&quot;&gt;CADASTRO&lt;/font&gt;&lt;/div&gt;" style="text;html=1;align=center;verticalAlign=middle;whiteSpace=wrap;rounded=0;fontStyle=3;fontSize=19;fontFamily=Georgia;" parent="1" vertex="1">
          <mxGeometry x="600" y="670" width="265" height="30" as="geometry" />
        </mxCell>
        <mxCell id="9rAJPEWSSfQrV0Wu2TRW-78" value="LISTA&amp;nbsp;&lt;div&gt;DE CLIENTES&lt;/div&gt;" style="text;html=1;align=center;verticalAlign=middle;whiteSpace=wrap;rounded=0;fontStyle=3;fontFamily=Verdana;" parent="1" vertex="1">
          <mxGeometry x="356.75" y="672.5" width="90" height="30" as="geometry" />
        </mxCell>
        <mxCell id="9rAJPEWSSfQrV0Wu2TRW-79" value="&lt;font face=&quot;Verdana&quot;&gt;&lt;b&gt;CONFIRMAR&lt;/b&gt;&lt;/font&gt;" style="shape=ext;double=1;rounded=1;whiteSpace=wrap;html=1;fillColor=#d5e8d4;strokeColor=#82b366;" parent="1" vertex="1">
          <mxGeometry x="650.5" y="940" width="139.5" height="40" as="geometry" />
        </mxCell>
        <mxCell id="9rAJPEWSSfQrV0Wu2TRW-80" value="" style="shape=ext;double=1;rounded=1;whiteSpace=wrap;html=1;" parent="1" vertex="1">
          <mxGeometry x="890" y="635" width="280" height="500" as="geometry" />
        </mxCell>
        <mxCell id="9rAJPEWSSfQrV0Wu2TRW-81" value="&lt;h1 style=&quot;font-size: 19px;&quot;&gt;&lt;font face=&quot;Verdana&quot; style=&quot;font-size: 19px;&quot;&gt;CADASTRO&amp;nbsp;&lt;/font&gt;&lt;/h1&gt;&lt;h1 style=&quot;font-size: 19px;&quot;&gt;&lt;font style=&quot;font-size: 19px;&quot;&gt;DE CLIENTE&lt;/font&gt;&lt;/h1&gt;" style="ellipse;shape=cloud;whiteSpace=wrap;html=1;fontStyle=2;fontSize=19;fontFamily=Verdana;fillColor=#FFE6CC;strokeColor=#FF8000;" parent="1" vertex="1">
          <mxGeometry x="921" y="635" width="218" height="120" as="geometry" />
        </mxCell>
        <mxCell id="9rAJPEWSSfQrV0Wu2TRW-82" value="NOME:" style="text;html=1;align=center;verticalAlign=middle;whiteSpace=wrap;rounded=0;fontStyle=1;fontFamily=Comic Sans MS;fontSize=15;" parent="1" vertex="1">
          <mxGeometry x="903.25" y="780" width="70" height="30" as="geometry" />
        </mxCell>
        <mxCell id="9rAJPEWSSfQrV0Wu2TRW-83" value="TELEFONE:" style="text;html=1;align=center;verticalAlign=middle;whiteSpace=wrap;rounded=0;fontFamily=Comic Sans MS;fontStyle=1;fontSize=14;" parent="1" vertex="1">
          <mxGeometry x="908.25" y="850" width="60" height="30" as="geometry" />
        </mxCell>
        <mxCell id="9rAJPEWSSfQrV0Wu2TRW-84" value="ENDEREÇO:" style="text;html=1;align=center;verticalAlign=middle;whiteSpace=wrap;rounded=0;fontFamily=Comic Sans MS;fontStyle=1;fontSize=14;" parent="1" vertex="1">
          <mxGeometry x="908.25" y="920" width="60" height="30" as="geometry" />
        </mxCell>
        <UserObject label="" treeRoot="1" id="9rAJPEWSSfQrV0Wu2TRW-85">
          <mxCell style="whiteSpace=wrap;html=1;align=center;treeFolding=1;treeMoving=1;newEdgeStyle={&quot;edgeStyle&quot;:&quot;elbowEdgeStyle&quot;,&quot;startArrow&quot;:&quot;none&quot;,&quot;endArrow&quot;:&quot;none&quot;};" parent="1" vertex="1">
            <mxGeometry x="985.5" y="920" width="170" height="30" as="geometry" />
          </mxCell>
        </UserObject>
        <UserObject label="" treeRoot="1" id="9rAJPEWSSfQrV0Wu2TRW-86">
          <mxCell style="whiteSpace=wrap;html=1;align=center;treeFolding=1;treeMoving=1;newEdgeStyle={&quot;edgeStyle&quot;:&quot;elbowEdgeStyle&quot;,&quot;startArrow&quot;:&quot;none&quot;,&quot;endArrow&quot;:&quot;none&quot;};fillColor=#f8cecc;strokeColor=#FF0000;" parent="1" vertex="1">
            <mxGeometry x="985.5" y="850" width="170" height="30" as="geometry" />
          </mxCell>
        </UserObject>
        <UserObject label="" treeRoot="1" id="9rAJPEWSSfQrV0Wu2TRW-87">
          <mxCell style="whiteSpace=wrap;html=1;align=center;treeFolding=1;treeMoving=1;newEdgeStyle={&quot;edgeStyle&quot;:&quot;elbowEdgeStyle&quot;,&quot;startArrow&quot;:&quot;none&quot;,&quot;endArrow&quot;:&quot;none&quot;};" parent="1" vertex="1">
            <mxGeometry x="984.5" y="780" width="171" height="35" as="geometry" />
          </mxCell>
        </UserObject>
        <mxCell id="9rAJPEWSSfQrV0Wu2TRW-91" value="&lt;font face=&quot;Verdana&quot;&gt;&lt;b&gt;CONFIRMAR&lt;/b&gt;&lt;/font&gt;" style="shape=ext;double=1;rounded=1;whiteSpace=wrap;html=1;fillColor=#d5e8d4;strokeColor=#82b366;" parent="1" vertex="1">
          <mxGeometry x="960.25" y="990" width="139.5" height="40" as="geometry" />
        </mxCell>
        <mxCell id="CuhVgCPP8AtplbJD4nhm-1" value="" style="shape=ext;double=1;rounded=1;whiteSpace=wrap;html=1;" vertex="1" parent="1">
          <mxGeometry x="1202" y="630" width="286" height="500" as="geometry" />
        </mxCell>
        <mxCell id="CuhVgCPP8AtplbJD4nhm-5" value="&lt;b&gt;&lt;font style=&quot;font-size: 14px;&quot; face=&quot;Verdana&quot;&gt;CLIENTES&lt;/font&gt;&lt;/b&gt;" style="shape=ext;double=1;rounded=1;whiteSpace=wrap;html=1;fillColor=#b0e3e6;strokeColor=#0e8088;" vertex="1" parent="1">
          <mxGeometry x="1241" y="652.5" width="200" height="47.5" as="geometry" />
        </mxCell>
        <mxCell id="CuhVgCPP8AtplbJD4nhm-6" value="&lt;b&gt;&lt;font style=&quot;font-size: 14px;&quot; face=&quot;Verdana&quot;&gt;FORNECEDORES&lt;/font&gt;&lt;/b&gt;" style="shape=ext;double=1;rounded=1;whiteSpace=wrap;html=1;fillColor=#b1ddf0;strokeColor=#10739e;" vertex="1" parent="1">
          <mxGeometry x="1241" y="720" width="200" height="50" as="geometry" />
        </mxCell>
        <mxCell id="CuhVgCPP8AtplbJD4nhm-7" value="&lt;font face=&quot;Verdana&quot;&gt;&lt;span style=&quot;font-size: 14px;&quot;&gt;&lt;b&gt;MATÉRIA PRIMA&lt;/b&gt;&lt;/span&gt;&lt;/font&gt;" style="shape=ext;double=1;rounded=1;whiteSpace=wrap;html=1;fillColor=#CC99FF;strokeColor=#6600CC;" vertex="1" parent="1">
          <mxGeometry x="1245" y="790" width="200" height="50" as="geometry" />
        </mxCell>
        <mxCell id="CuhVgCPP8AtplbJD4nhm-8" value="&lt;b&gt;&lt;font style=&quot;font-size: 14px;&quot; face=&quot;Verdana&quot;&gt;PRODUTOS&lt;/font&gt;&lt;/b&gt;" style="shape=ext;double=1;rounded=1;whiteSpace=wrap;html=1;fillColor=#FFCCFF;strokeColor=#f91fe7;" vertex="1" parent="1">
          <mxGeometry x="1245" y="860" width="200" height="50" as="geometry" />
        </mxCell>
        <mxCell id="CuhVgCPP8AtplbJD4nhm-9" value="&lt;b&gt;&lt;font style=&quot;font-size: 14px;&quot; face=&quot;Verdana&quot;&gt;TRANSPORTADORA&lt;/font&gt;&lt;/b&gt;" style="shape=ext;double=1;rounded=1;whiteSpace=wrap;html=1;fillColor=#d5e8d4;gradientColor=none;strokeColor=#82b366;" vertex="1" parent="1">
          <mxGeometry x="1245" y="930" width="200" height="50" as="geometry" />
        </mxCell>
        <mxCell id="CuhVgCPP8AtplbJD4nhm-10" value="&lt;b&gt;&lt;font style=&quot;font-size: 14px;&quot; face=&quot;Verdana&quot;&gt;FUNCIONÁRIO&lt;/font&gt;&lt;/b&gt;" style="shape=ext;double=1;rounded=1;whiteSpace=wrap;html=1;fillColor=#fff2cc;strokeColor=#d6b656;" vertex="1" parent="1">
          <mxGeometry x="1245" y="1000" width="200" height="50" as="geometry" />
        </mxCell>
        <mxCell id="CuhVgCPP8AtplbJD4nhm-11" value="&lt;font face=&quot;Verdana&quot;&gt;&lt;span style=&quot;font-size: 14px;&quot;&gt;&lt;b&gt;PEDIDOS&lt;/b&gt;&lt;/span&gt;&lt;/font&gt;" style="shape=ext;double=1;rounded=1;whiteSpace=wrap;html=1;fillColor=#ffe6cc;strokeColor=#d79b00;" vertex="1" parent="1">
          <mxGeometry x="1245" y="1070" width="200" height="50" as="geometry" />
        </mxCell>
      </root>
    </mxGraphModel>
  </diagram>
  <diagram id="AyRA6ZqEg2DmLlDodCSl" name="Página-2">
    <mxGraphModel dx="2049" dy="1117" grid="1" gridSize="10" guides="1" tooltips="1" connect="1" arrows="1" fold="1" page="1" pageScale="1" pageWidth="827" pageHeight="1169" math="0" shadow="0">
      <root>
        <mxCell id="0" />
        <mxCell id="1" parent="0" />
        <mxCell id="4hy7FEDMK645bhSUUood-1" value="" style="shape=ext;double=1;rounded=1;whiteSpace=wrap;html=1;" parent="1" vertex="1">
          <mxGeometry x="271" y="90" width="280" height="500" as="geometry" />
        </mxCell>
        <UserObject label="" treeRoot="1" id="4hy7FEDMK645bhSUUood-2">
          <mxCell style="whiteSpace=wrap;html=1;align=center;treeFolding=1;treeMoving=1;newEdgeStyle={&quot;edgeStyle&quot;:&quot;elbowEdgeStyle&quot;,&quot;startArrow&quot;:&quot;none&quot;,&quot;endArrow&quot;:&quot;none&quot;};" parent="1" vertex="1">
            <mxGeometry x="370" y="220" width="160" height="30" as="geometry" />
          </mxCell>
        </UserObject>
        <mxCell id="4hy7FEDMK645bhSUUood-3" value="NOME:" style="text;html=1;align=center;verticalAlign=middle;whiteSpace=wrap;rounded=0;fontStyle=1;fontFamily=Comic Sans MS;fontSize=15;" parent="1" vertex="1">
          <mxGeometry x="286.75" y="220" width="70" height="30" as="geometry" />
        </mxCell>
        <mxCell id="4hy7FEDMK645bhSUUood-4" value="TELEFONE:" style="text;html=1;align=center;verticalAlign=middle;whiteSpace=wrap;rounded=0;fontFamily=Comic Sans MS;fontStyle=1;fontSize=14;" parent="1" vertex="1">
          <mxGeometry x="292.5" y="280" width="60" height="30" as="geometry" />
        </mxCell>
        <UserObject label="" treeRoot="1" id="4hy7FEDMK645bhSUUood-5">
          <mxCell style="whiteSpace=wrap;html=1;align=center;treeFolding=1;treeMoving=1;newEdgeStyle={&quot;edgeStyle&quot;:&quot;elbowEdgeStyle&quot;,&quot;startArrow&quot;:&quot;none&quot;,&quot;endArrow&quot;:&quot;none&quot;};" parent="1" vertex="1">
            <mxGeometry x="370" y="280" width="160" height="30" as="geometry" />
          </mxCell>
        </UserObject>
        <mxCell id="4hy7FEDMK645bhSUUood-6" value="E-MAIL:" style="text;html=1;align=center;verticalAlign=middle;whiteSpace=wrap;rounded=0;fontFamily=Comic Sans MS;fontStyle=1;fontSize=14;" parent="1" vertex="1">
          <mxGeometry x="289" y="340" width="65" height="30" as="geometry" />
        </mxCell>
        <UserObject label="" treeRoot="1" id="4hy7FEDMK645bhSUUood-7">
          <mxCell style="whiteSpace=wrap;html=1;align=center;treeFolding=1;treeMoving=1;newEdgeStyle={&quot;edgeStyle&quot;:&quot;elbowEdgeStyle&quot;,&quot;startArrow&quot;:&quot;none&quot;,&quot;endArrow&quot;:&quot;none&quot;};" parent="1" vertex="1">
            <mxGeometry x="370" y="340" width="160" height="30" as="geometry" />
          </mxCell>
        </UserObject>
        <mxCell id="4hy7FEDMK645bhSUUood-8" value="&lt;h1 style=&quot;font-size: 17px;&quot;&gt;CADASTRO DO FORNECEDOR&lt;/h1&gt;" style="ellipse;shape=cloud;whiteSpace=wrap;html=1;fontStyle=2;fontSize=17;fontFamily=Verdana;fillColor=#ffe6cc;strokeColor=#d79b00;" parent="1" vertex="1">
          <mxGeometry x="290" y="90" width="230" height="120" as="geometry" />
        </mxCell>
        <mxCell id="4hy7FEDMK645bhSUUood-9" value="" style="shape=ext;double=1;rounded=1;whiteSpace=wrap;html=1;" parent="1" vertex="1">
          <mxGeometry x="274" y="630" width="286" height="500" as="geometry" />
        </mxCell>
        <mxCell id="4hy7FEDMK645bhSUUood-10" value="&lt;h1 style=&quot;font-size: 19px;&quot;&gt;&lt;i&gt;LISTA DE FORNECEDORES&lt;/i&gt;&lt;/h1&gt;" style="ellipse;shape=cloud;whiteSpace=wrap;html=1;fontSize=15;fillColor=#FFE6CC;strokeColor=#FF8000;fontFamily=Verdana;" parent="1" vertex="1">
          <mxGeometry x="278.75" y="635" width="270" height="117.5" as="geometry" />
        </mxCell>
        <mxCell id="4hy7FEDMK645bhSUUood-11" value="SN..." style="shape=ext;double=1;rounded=1;whiteSpace=wrap;html=1;" parent="1" vertex="1">
          <mxGeometry x="290" y="767.5" width="221" height="30" as="geometry" />
        </mxCell>
        <mxCell id="4hy7FEDMK645bhSUUood-12" value="" style="shape=image;html=1;verticalLabelPosition=bottom;verticalAlign=top;imageAspect=1;aspect=fixed;image=https://cdn-icons-png.flaticon.com/512/2015/2015046.png;" parent="1" vertex="1">
          <mxGeometry x="520" y="767.5" width="30" height="30" as="geometry" />
        </mxCell>
        <mxCell id="4hy7FEDMK645bhSUUood-13" value="" style="shape=ext;double=1;rounded=1;whiteSpace=wrap;html=1;" parent="1" vertex="1">
          <mxGeometry x="580" y="240" width="260" height="110" as="geometry" />
        </mxCell>
        <mxCell id="4hy7FEDMK645bhSUUood-14" value="&lt;font style=&quot;font-size: 16px;&quot; face=&quot;Verdana&quot;&gt;&lt;i style=&quot;font-size: 16px;&quot;&gt;&lt;b style=&quot;font-size: 16px;&quot;&gt;APAGAR FORNECEDOR?&lt;/b&gt;&lt;/i&gt;&lt;/font&gt;" style="text;html=1;align=center;verticalAlign=middle;whiteSpace=wrap;rounded=0;fontSize=16;" parent="1" vertex="1">
          <mxGeometry x="625" y="250" width="170" height="40" as="geometry" />
        </mxCell>
        <mxCell id="4hy7FEDMK645bhSUUood-15" value="&lt;font face=&quot;Verdana&quot;&gt;&lt;b style=&quot;&quot;&gt;SIM&lt;/b&gt;&lt;/font&gt;" style="shape=ext;double=1;rounded=1;whiteSpace=wrap;html=1;fillColor=#d5e8d4;strokeColor=#82b366;" parent="1" vertex="1">
          <mxGeometry x="630" y="290" width="70" height="40" as="geometry" />
        </mxCell>
        <mxCell id="4hy7FEDMK645bhSUUood-16" value="&lt;font face=&quot;Verdana&quot;&gt;&lt;b&gt;NÃO&lt;/b&gt;&lt;/font&gt;" style="shape=ext;double=1;rounded=1;whiteSpace=wrap;html=1;fillColor=#f8cecc;strokeColor=#b85450;" parent="1" vertex="1">
          <mxGeometry x="720" y="290" width="70" height="40" as="geometry" />
        </mxCell>
        <mxCell id="4hy7FEDMK645bhSUUood-17" value="&lt;font face=&quot;Verdana&quot;&gt;&lt;b&gt;CONFIRMAR&lt;/b&gt;&lt;/font&gt;" style="shape=ext;double=1;rounded=1;whiteSpace=wrap;html=1;fillColor=#d5e8d4;strokeColor=#82b366;" parent="1" vertex="1">
          <mxGeometry x="344" y="530" width="139.5" height="40" as="geometry" />
        </mxCell>
        <mxCell id="4hy7FEDMK645bhSUUood-18" value="&lt;ul style=&quot;font-size: 16px;&quot;&gt;&lt;li style=&quot;font-size: 16px;&quot;&gt;&lt;b&gt;SN Embalagens&lt;/b&gt;&lt;/li&gt;&lt;/ul&gt;" style="text;strokeColor=none;fillColor=none;html=1;whiteSpace=wrap;verticalAlign=middle;overflow=hidden;fontSize=16;" parent="1" vertex="1">
          <mxGeometry x="274" y="805" width="211" height="40" as="geometry" />
        </mxCell>
        <mxCell id="4hy7FEDMK645bhSUUood-19" value="" style="shape=image;html=1;verticalLabelPosition=bottom;verticalAlign=top;imageAspect=0;image=https://cdn-icons-png.flaticon.com/512/269/269074.png;" parent="1" vertex="1">
          <mxGeometry x="449.5" y="815" width="30" height="30" as="geometry" />
        </mxCell>
        <mxCell id="4hy7FEDMK645bhSUUood-20" value="" style="shape=ext;double=1;rounded=1;whiteSpace=wrap;html=1;" parent="1" vertex="1">
          <mxGeometry x="580" y="630" width="286" height="500" as="geometry" />
        </mxCell>
        <mxCell id="4hy7FEDMK645bhSUUood-21" value="" style="shape=ext;double=1;rounded=1;whiteSpace=wrap;html=1;" parent="1" vertex="1">
          <mxGeometry x="580" y="120" width="260" height="110" as="geometry" />
        </mxCell>
        <mxCell id="4hy7FEDMK645bhSUUood-22" value="ATUALIZAR DADOS&amp;nbsp;&lt;div style=&quot;font-size: 16px;&quot;&gt;DO FORNECEDOR?&lt;/div&gt;" style="text;html=1;align=center;verticalAlign=middle;whiteSpace=wrap;rounded=0;fontFamily=Verdana;fontStyle=3;fontSize=16;" parent="1" vertex="1">
          <mxGeometry x="620" y="140" width="190" height="30" as="geometry" />
        </mxCell>
        <mxCell id="4hy7FEDMK645bhSUUood-23" value="&lt;font face=&quot;Verdana&quot;&gt;&lt;b style=&quot;&quot;&gt;SIM&lt;/b&gt;&lt;/font&gt;" style="shape=ext;double=1;rounded=1;whiteSpace=wrap;html=1;fillColor=#d5e8d4;strokeColor=#82b366;" parent="1" vertex="1">
          <mxGeometry x="630" y="180" width="70" height="40" as="geometry" />
        </mxCell>
        <mxCell id="4hy7FEDMK645bhSUUood-24" value="&lt;font face=&quot;Verdana&quot;&gt;&lt;b&gt;NÃO&lt;/b&gt;&lt;/font&gt;" style="shape=ext;double=1;rounded=1;whiteSpace=wrap;html=1;fillColor=#f8cecc;strokeColor=#b85450;" parent="1" vertex="1">
          <mxGeometry x="720" y="180" width="70" height="40" as="geometry" />
        </mxCell>
        <mxCell id="4hy7FEDMK645bhSUUood-25" value="" style="shape=ext;double=1;rounded=1;whiteSpace=wrap;html=1;" parent="1" vertex="1">
          <mxGeometry x="580" y="380" width="260" height="110" as="geometry" />
        </mxCell>
        <mxCell id="4hy7FEDMK645bhSUUood-26" value="&lt;font face=&quot;Verdana&quot;&gt;CONFIRMAR?&lt;/font&gt;" style="text;html=1;align=center;verticalAlign=middle;whiteSpace=wrap;rounded=0;fontStyle=3;fontSize=19;fontFamily=Helvetica;" parent="1" vertex="1">
          <mxGeometry x="680" y="390" width="60" height="30" as="geometry" />
        </mxCell>
        <mxCell id="4hy7FEDMK645bhSUUood-27" value="&lt;font face=&quot;Verdana&quot;&gt;&lt;b style=&quot;&quot;&gt;SIM&lt;/b&gt;&lt;/font&gt;" style="shape=ext;double=1;rounded=1;whiteSpace=wrap;html=1;fillColor=#d5e8d4;strokeColor=#82b366;" parent="1" vertex="1">
          <mxGeometry x="625" y="430" width="70" height="40" as="geometry" />
        </mxCell>
        <mxCell id="4hy7FEDMK645bhSUUood-28" value="&lt;font face=&quot;Verdana&quot;&gt;&lt;b&gt;NÃO&lt;/b&gt;&lt;/font&gt;" style="shape=ext;double=1;rounded=1;whiteSpace=wrap;html=1;fillColor=#f8cecc;strokeColor=#b85450;" parent="1" vertex="1">
          <mxGeometry x="720" y="430" width="70" height="40" as="geometry" />
        </mxCell>
        <mxCell id="4hy7FEDMK645bhSUUood-29" value="" style="shape=ext;double=1;rounded=1;whiteSpace=wrap;html=1;" parent="1" vertex="1">
          <mxGeometry x="866" y="240" width="204" height="230" as="geometry" />
        </mxCell>
        <mxCell id="4hy7FEDMK645bhSUUood-30" value="DADOS INVÁLIDOS" style="text;html=1;align=center;verticalAlign=middle;whiteSpace=wrap;rounded=0;fontStyle=3;fontFamily=Verdana;fontSize=18;" parent="1" vertex="1">
          <mxGeometry x="876" y="260" width="194" height="50" as="geometry" />
        </mxCell>
        <mxCell id="4hy7FEDMK645bhSUUood-31" value="" style="verticalLabelPosition=bottom;verticalAlign=top;html=1;shape=mxgraph.basic.x;fillColor=#FF0000;strokeColor=#b85450;" parent="1" vertex="1">
          <mxGeometry x="946" y="320" width="54" height="50" as="geometry" />
        </mxCell>
        <mxCell id="4hy7FEDMK645bhSUUood-32" value="&lt;font face=&quot;Verdana&quot;&gt;&lt;b&gt;VOLTAR&lt;/b&gt;&lt;/font&gt;" style="shape=ext;double=1;rounded=1;whiteSpace=wrap;html=1;fillColor=#d5e8d4;strokeColor=#82b366;" parent="1" vertex="1">
          <mxGeometry x="903.25" y="400" width="139.5" height="40" as="geometry" />
        </mxCell>
        <mxCell id="4hy7FEDMK645bhSUUood-33" value="RAZÃO&lt;div style=&quot;font-size: 14px;&quot;&gt;&amp;nbsp;SOCIAL:&lt;/div&gt;" style="text;html=1;align=center;verticalAlign=middle;whiteSpace=wrap;rounded=0;fontStyle=1;fontFamily=Comic Sans MS;fontSize=14;" parent="1" vertex="1">
          <mxGeometry x="565" y="785" width="130" height="20" as="geometry" />
        </mxCell>
        <mxCell id="4hy7FEDMK645bhSUUood-34" value="TELEFONE:" style="text;html=1;align=center;verticalAlign=middle;whiteSpace=wrap;rounded=0;fontFamily=Comic Sans MS;fontStyle=1;fontSize=14;" parent="1" vertex="1">
          <mxGeometry x="603" y="840" width="60" height="30" as="geometry" />
        </mxCell>
        <mxCell id="4hy7FEDMK645bhSUUood-35" value="E-MAIL:" style="text;html=1;align=center;verticalAlign=middle;whiteSpace=wrap;rounded=0;fontFamily=Comic Sans MS;fontStyle=1;fontSize=14;" parent="1" vertex="1">
          <mxGeometry x="593" y="905" width="70" height="30" as="geometry" />
        </mxCell>
        <UserObject label="SNembalagens2024@gmail.com" treeRoot="1" id="4hy7FEDMK645bhSUUood-36">
          <mxCell style="whiteSpace=wrap;html=1;align=center;treeFolding=1;treeMoving=1;newEdgeStyle={&quot;edgeStyle&quot;:&quot;elbowEdgeStyle&quot;,&quot;startArrow&quot;:&quot;none&quot;,&quot;endArrow&quot;:&quot;none&quot;};" parent="1" vertex="1">
            <mxGeometry x="663" y="900" width="190" height="40" as="geometry" />
          </mxCell>
        </UserObject>
        <UserObject label="(43) 99012-3456" treeRoot="1" id="4hy7FEDMK645bhSUUood-37">
          <mxCell style="whiteSpace=wrap;html=1;align=center;treeFolding=1;treeMoving=1;newEdgeStyle={&quot;edgeStyle&quot;:&quot;elbowEdgeStyle&quot;,&quot;startArrow&quot;:&quot;none&quot;,&quot;endArrow&quot;:&quot;none&quot;};" parent="1" vertex="1">
            <mxGeometry x="680" y="840" width="160" height="30" as="geometry" />
          </mxCell>
        </UserObject>
        <UserObject label="SN Embalagens" treeRoot="1" id="4hy7FEDMK645bhSUUood-38">
          <mxCell style="whiteSpace=wrap;html=1;align=center;treeFolding=1;treeMoving=1;newEdgeStyle={&quot;edgeStyle&quot;:&quot;elbowEdgeStyle&quot;,&quot;startArrow&quot;:&quot;none&quot;,&quot;endArrow&quot;:&quot;none&quot;};" parent="1" vertex="1">
            <mxGeometry x="675" y="775" width="170" height="35" as="geometry" />
          </mxCell>
        </UserObject>
        <mxCell id="4hy7FEDMK645bhSUUood-39" value="" style="ellipse;shape=cloud;whiteSpace=wrap;html=1;fillColor=#FFE6CC;strokeColor=#FF8000;" parent="1" vertex="1">
          <mxGeometry x="585" y="637.5" width="260" height="105" as="geometry" />
        </mxCell>
        <mxCell id="4hy7FEDMK645bhSUUood-40" value="&lt;font face=&quot;Verdana&quot;&gt;ATUALIZAR&amp;nbsp;&lt;/font&gt;&lt;div&gt;&lt;font face=&quot;Verdana&quot;&gt;CADASTRO&lt;/font&gt;&lt;/div&gt;" style="text;html=1;align=center;verticalAlign=middle;whiteSpace=wrap;rounded=0;fontStyle=3;fontSize=19;fontFamily=Georgia;" parent="1" vertex="1">
          <mxGeometry x="588" y="675" width="265" height="30" as="geometry" />
        </mxCell>
        <mxCell id="4hy7FEDMK645bhSUUood-42" value="&lt;font face=&quot;Verdana&quot;&gt;&lt;b&gt;CONFIRMAR&lt;/b&gt;&lt;/font&gt;" style="shape=ext;double=1;rounded=1;whiteSpace=wrap;html=1;fillColor=#d5e8d4;strokeColor=#82b366;" parent="1" vertex="1">
          <mxGeometry x="650.5" y="1040" width="139.5" height="40" as="geometry" />
        </mxCell>
        <mxCell id="4hy7FEDMK645bhSUUood-43" value="&lt;div&gt;&lt;br&gt;&lt;/div&gt;" style="shape=ext;double=1;rounded=1;whiteSpace=wrap;html=1;" parent="1" vertex="1">
          <mxGeometry x="890" y="635" width="280" height="500" as="geometry" />
        </mxCell>
        <mxCell id="4hy7FEDMK645bhSUUood-44" value="&lt;h1 style=&quot;font-size: 19px;&quot;&gt;&lt;font face=&quot;Verdana&quot; style=&quot;font-size: 19px;&quot;&gt;CADASTRO&amp;nbsp;&lt;/font&gt;&lt;/h1&gt;&lt;h1 style=&quot;font-size: 19px;&quot;&gt;&lt;font style=&quot;font-size: 19px;&quot;&gt;DE FORNECEDOR&lt;/font&gt;&lt;/h1&gt;" style="ellipse;shape=cloud;whiteSpace=wrap;html=1;fontStyle=2;fontSize=19;fontFamily=Verdana;fillColor=#FFE6CC;strokeColor=#FF8000;" parent="1" vertex="1">
          <mxGeometry x="890" y="632.5" width="259" height="135" as="geometry" />
        </mxCell>
        <mxCell id="4hy7FEDMK645bhSUUood-45" value="RAZÃO SOCIAL" style="text;html=1;align=center;verticalAlign=middle;whiteSpace=wrap;rounded=0;fontStyle=1;fontFamily=Comic Sans MS;fontSize=15;" parent="1" vertex="1">
          <mxGeometry x="903.25" y="780" width="70" height="30" as="geometry" />
        </mxCell>
        <mxCell id="4hy7FEDMK645bhSUUood-46" value="TELEFONE:" style="text;html=1;align=center;verticalAlign=middle;whiteSpace=wrap;rounded=0;fontFamily=Comic Sans MS;fontStyle=1;fontSize=14;" parent="1" vertex="1">
          <mxGeometry x="908.25" y="850" width="60" height="30" as="geometry" />
        </mxCell>
        <UserObject label="SNembalagens2024@gmail.com" treeRoot="1" id="4hy7FEDMK645bhSUUood-48">
          <mxCell style="whiteSpace=wrap;html=1;align=center;treeFolding=1;treeMoving=1;newEdgeStyle={&quot;edgeStyle&quot;:&quot;elbowEdgeStyle&quot;,&quot;startArrow&quot;:&quot;none&quot;,&quot;endArrow&quot;:&quot;none&quot;};" parent="1" vertex="1">
            <mxGeometry x="970" y="920" width="185.5" height="30" as="geometry" />
          </mxCell>
        </UserObject>
        <UserObject label="(43) 99012-3456" treeRoot="1" id="4hy7FEDMK645bhSUUood-49">
          <mxCell style="whiteSpace=wrap;html=1;align=center;treeFolding=1;treeMoving=1;newEdgeStyle={&quot;edgeStyle&quot;:&quot;elbowEdgeStyle&quot;,&quot;startArrow&quot;:&quot;none&quot;,&quot;endArrow&quot;:&quot;none&quot;};" parent="1" vertex="1">
            <mxGeometry x="984.5" y="850" width="170" height="30" as="geometry" />
          </mxCell>
        </UserObject>
        <UserObject label="SN Embalagens" treeRoot="1" id="4hy7FEDMK645bhSUUood-50">
          <mxCell style="whiteSpace=wrap;html=1;align=center;treeFolding=1;treeMoving=1;newEdgeStyle={&quot;edgeStyle&quot;:&quot;elbowEdgeStyle&quot;,&quot;startArrow&quot;:&quot;none&quot;,&quot;endArrow&quot;:&quot;none&quot;};" parent="1" vertex="1">
            <mxGeometry x="984.5" y="780" width="171" height="35" as="geometry" />
          </mxCell>
        </UserObject>
        <mxCell id="4hy7FEDMK645bhSUUood-51" value="&lt;font face=&quot;Verdana&quot;&gt;&lt;b&gt;CONFIRMAR&lt;/b&gt;&lt;/font&gt;" style="shape=ext;double=1;rounded=1;whiteSpace=wrap;html=1;fillColor=#d5e8d4;strokeColor=#82b366;" parent="1" vertex="1">
          <mxGeometry x="960.25" y="1050" width="139.5" height="40" as="geometry" />
        </mxCell>
        <mxCell id="4hy7FEDMK645bhSUUood-53" value="CNPJ:" style="text;html=1;align=center;verticalAlign=middle;whiteSpace=wrap;rounded=0;fontFamily=Comic Sans MS;fontStyle=1;fontSize=14;" parent="1" vertex="1">
          <mxGeometry x="593" y="970" width="60" height="30" as="geometry" />
        </mxCell>
        <UserObject label="12.345.678/9101-23" treeRoot="1" id="4hy7FEDMK645bhSUUood-54">
          <mxCell style="whiteSpace=wrap;html=1;align=center;treeFolding=1;treeMoving=1;newEdgeStyle={&quot;edgeStyle&quot;:&quot;elbowEdgeStyle&quot;,&quot;startArrow&quot;:&quot;none&quot;,&quot;endArrow&quot;:&quot;none&quot;};" parent="1" vertex="1">
            <mxGeometry x="655" y="970" width="194.5" height="30" as="geometry" />
          </mxCell>
        </UserObject>
        <mxCell id="4hy7FEDMK645bhSUUood-55" value="E-MAIL:" style="text;html=1;align=center;verticalAlign=middle;whiteSpace=wrap;rounded=0;fontFamily=Comic Sans MS;fontStyle=1;fontSize=14;" parent="1" vertex="1">
          <mxGeometry x="898.25" y="920" width="70" height="30" as="geometry" />
        </mxCell>
        <mxCell id="4hy7FEDMK645bhSUUood-56" value="&lt;b style=&quot;font-size: 14px;&quot;&gt;&lt;font style=&quot;font-size: 14px;&quot; face=&quot;Comic Sans MS&quot;&gt;CNPJ:&lt;/font&gt;&lt;/b&gt;" style="text;html=1;align=center;verticalAlign=middle;whiteSpace=wrap;rounded=0;fontSize=14;" parent="1" vertex="1">
          <mxGeometry x="898.25" y="980" width="70" height="30" as="geometry" />
        </mxCell>
        <UserObject label="12.345.678/9101-23" treeRoot="1" id="4hy7FEDMK645bhSUUood-58">
          <mxCell style="whiteSpace=wrap;html=1;align=center;treeFolding=1;treeMoving=1;newEdgeStyle={&quot;edgeStyle&quot;:&quot;elbowEdgeStyle&quot;,&quot;startArrow&quot;:&quot;none&quot;,&quot;endArrow&quot;:&quot;none&quot;};fillColor=#f8cecc;strokeColor=#FF0000;" parent="1" vertex="1">
            <mxGeometry x="965.5" y="980" width="194.5" height="30" as="geometry" />
          </mxCell>
        </UserObject>
        <mxCell id="4hy7FEDMK645bhSUUood-59" value="&lt;b style=&quot;font-size: 14px;&quot;&gt;&lt;font style=&quot;font-size: 14px;&quot; face=&quot;Comic Sans MS&quot;&gt;CNPJ:&lt;/font&gt;&lt;/b&gt;" style="text;html=1;align=center;verticalAlign=middle;whiteSpace=wrap;rounded=0;fontSize=14;" parent="1" vertex="1">
          <mxGeometry x="289" y="400" width="60" height="30" as="geometry" />
        </mxCell>
        <UserObject label="" treeRoot="1" id="4hy7FEDMK645bhSUUood-60">
          <mxCell style="whiteSpace=wrap;html=1;align=center;treeFolding=1;treeMoving=1;newEdgeStyle={&quot;edgeStyle&quot;:&quot;elbowEdgeStyle&quot;,&quot;startArrow&quot;:&quot;none&quot;,&quot;endArrow&quot;:&quot;none&quot;};" parent="1" vertex="1">
            <mxGeometry x="370" y="400" width="160" height="30" as="geometry" />
          </mxCell>
        </UserObject>
        <mxCell id="4hy7FEDMK645bhSUUood-62" value="MATÉRIA PRIMA:" style="text;html=1;align=center;verticalAlign=middle;whiteSpace=wrap;rounded=0;fontFamily=Comic Sans MS;fontStyle=1;fontSize=14;" parent="1" vertex="1">
          <mxGeometry x="289" y="450" width="60" height="30" as="geometry" />
        </mxCell>
        <mxCell id="4hy7FEDMK645bhSUUood-67" value="" style="rounded=1;whiteSpace=wrap;html=1;" parent="1" vertex="1">
          <mxGeometry x="365" y="450" width="165" height="70" as="geometry" />
        </mxCell>
        <mxCell id="4hy7FEDMK645bhSUUood-70" value="&lt;b&gt;&lt;font style=&quot;font-size: 17px;&quot; face=&quot;Comic Sans MS&quot;&gt;+&lt;/font&gt;&lt;/b&gt;" style="whiteSpace=wrap;html=1;aspect=fixed;" parent="1" vertex="1">
          <mxGeometry x="501.5" y="460" width="20" height="20" as="geometry" />
        </mxCell>
        <mxCell id="4hy7FEDMK645bhSUUood-71" value="" style="line;strokeWidth=2;html=1;" parent="1" vertex="1">
          <mxGeometry x="365" y="430" width="165" height="110" as="geometry" />
        </mxCell>
        <mxCell id="4hy7FEDMK645bhSUUood-73" value="" style="shape=ext;double=1;rounded=1;whiteSpace=wrap;html=1;" parent="1" vertex="1">
          <mxGeometry x="1109.69" y="230" width="230" height="310" as="geometry" />
        </mxCell>
        <mxCell id="4hy7FEDMK645bhSUUood-74" value="&lt;h1 style=&quot;font-size: 17px;&quot;&gt;MATÉRIA&amp;nbsp;&lt;/h1&gt;&lt;h1 style=&quot;font-size: 17px;&quot;&gt;PRIMA&lt;/h1&gt;" style="ellipse;shape=cloud;whiteSpace=wrap;html=1;fontStyle=2;fontSize=17;fontFamily=Verdana;fillColor=#FFE6CC;strokeColor=#FF8000;" parent="1" vertex="1">
          <mxGeometry x="1119.5" y="240" width="210.25" height="85" as="geometry" />
        </mxCell>
        <mxCell id="yA1QP_bZsVxNr3P3GEUl-1" value="" style="rounded=0;whiteSpace=wrap;html=1;" parent="1" vertex="1">
          <mxGeometry x="1119.63" y="340" width="210.12" height="30" as="geometry" />
        </mxCell>
        <mxCell id="yA1QP_bZsVxNr3P3GEUl-5" value="" style="line;strokeWidth=2;direction=south;html=1;" parent="1" vertex="1">
          <mxGeometry x="1290" y="340" width="10" height="30" as="geometry" />
        </mxCell>
        <mxCell id="yA1QP_bZsVxNr3P3GEUl-6" value="+" style="text;html=1;align=center;verticalAlign=middle;whiteSpace=wrap;rounded=0;fontSize=27;fontStyle=1;fontFamily=Comic Sans MS;" parent="1" vertex="1">
          <mxGeometry x="1279.69" y="340" width="60" height="30" as="geometry" />
        </mxCell>
        <mxCell id="yA1QP_bZsVxNr3P3GEUl-8" value="&lt;font face=&quot;Verdana&quot;&gt;&lt;b&gt;ADICIONAR&lt;/b&gt;&lt;/font&gt;" style="shape=ext;double=1;rounded=1;whiteSpace=wrap;html=1;fillColor=#d5e8d4;strokeColor=#82b366;" parent="1" vertex="1">
          <mxGeometry x="1160" y="410" width="139.5" height="40" as="geometry" />
        </mxCell>
        <mxCell id="yA1QP_bZsVxNr3P3GEUl-9" value="&lt;font face=&quot;Verdana&quot;&gt;&lt;b&gt;CANCELAR&lt;/b&gt;&lt;/font&gt;" style="shape=ext;double=1;rounded=1;whiteSpace=wrap;html=1;fillColor=#f8cecc;strokeColor=#b85450;" parent="1" vertex="1">
          <mxGeometry x="1157.3799999999999" y="465" width="144.74" height="40" as="geometry" />
        </mxCell>
        <mxCell id="uUo9Oge4oWDLR_81A7Q3-1" value="" style="shape=image;html=1;verticalLabelPosition=bottom;verticalAlign=top;imageAspect=0;image=https://i.pinimg.com/736x/39/b2/2a/39b22a6a39babe75252fdffeebe4e103.jpg;" parent="1" vertex="1">
          <mxGeometry x="497.25" y="490" width="28.5" height="30" as="geometry" />
        </mxCell>
      </root>
    </mxGraphModel>
  </diagram>
  <diagram id="xRJdf4BfIDnIv176tt1n" name="Página-3">
    <mxGraphModel dx="1687" dy="920" grid="1" gridSize="10" guides="1" tooltips="1" connect="1" arrows="1" fold="1" page="1" pageScale="1" pageWidth="827" pageHeight="1169" math="0" shadow="0">
      <root>
        <mxCell id="0" />
        <mxCell id="1" parent="0" />
        <mxCell id="VyV_slpJIuUIzBvri2z5-1" value="" style="shape=ext;double=1;rounded=1;whiteSpace=wrap;html=1;" vertex="1" parent="1">
          <mxGeometry x="271" y="90" width="280" height="500" as="geometry" />
        </mxCell>
        <UserObject label="" treeRoot="1" id="VyV_slpJIuUIzBvri2z5-2">
          <mxCell style="whiteSpace=wrap;html=1;align=center;treeFolding=1;treeMoving=1;newEdgeStyle={&quot;edgeStyle&quot;:&quot;elbowEdgeStyle&quot;,&quot;startArrow&quot;:&quot;none&quot;,&quot;endArrow&quot;:&quot;none&quot;};" vertex="1" parent="1">
            <mxGeometry x="370" y="220" width="160" height="30" as="geometry" />
          </mxCell>
        </UserObject>
        <mxCell id="VyV_slpJIuUIzBvri2z5-3" value="NOME:" style="text;html=1;align=center;verticalAlign=middle;whiteSpace=wrap;rounded=0;fontStyle=1;fontFamily=Comic Sans MS;fontSize=15;" vertex="1" parent="1">
          <mxGeometry x="286.75" y="220" width="70" height="30" as="geometry" />
        </mxCell>
        <mxCell id="VyV_slpJIuUIzBvri2z5-4" value="UNIDADE:" style="text;html=1;align=center;verticalAlign=middle;whiteSpace=wrap;rounded=0;fontFamily=Comic Sans MS;fontStyle=1;fontSize=14;" vertex="1" parent="1">
          <mxGeometry x="292.5" y="280" width="60" height="30" as="geometry" />
        </mxCell>
        <UserObject label="" treeRoot="1" id="VyV_slpJIuUIzBvri2z5-5">
          <mxCell style="whiteSpace=wrap;html=1;align=center;treeFolding=1;treeMoving=1;newEdgeStyle={&quot;edgeStyle&quot;:&quot;elbowEdgeStyle&quot;,&quot;startArrow&quot;:&quot;none&quot;,&quot;endArrow&quot;:&quot;none&quot;};" vertex="1" parent="1">
            <mxGeometry x="370" y="280" width="160" height="30" as="geometry" />
          </mxCell>
        </UserObject>
        <mxCell id="VyV_slpJIuUIzBvri2z5-6" value="QUANTIDADE:" style="text;html=1;align=center;verticalAlign=middle;whiteSpace=wrap;rounded=0;fontFamily=Comic Sans MS;fontStyle=1;fontSize=14;" vertex="1" parent="1">
          <mxGeometry x="300" y="340" width="65" height="30" as="geometry" />
        </mxCell>
        <UserObject label="" treeRoot="1" id="VyV_slpJIuUIzBvri2z5-7">
          <mxCell style="whiteSpace=wrap;html=1;align=center;treeFolding=1;treeMoving=1;newEdgeStyle={&quot;edgeStyle&quot;:&quot;elbowEdgeStyle&quot;,&quot;startArrow&quot;:&quot;none&quot;,&quot;endArrow&quot;:&quot;none&quot;};" vertex="1" parent="1">
            <mxGeometry x="388" y="340" width="156" height="30" as="geometry" />
          </mxCell>
        </UserObject>
        <mxCell id="VyV_slpJIuUIzBvri2z5-8" value="&lt;h1 style=&quot;font-size: 17px;&quot;&gt;CADASTRO DE&lt;/h1&gt;&lt;h1 style=&quot;font-size: 17px;&quot;&gt;&amp;nbsp;MATÉRIA PRIMA&lt;/h1&gt;" style="ellipse;shape=cloud;whiteSpace=wrap;html=1;fontStyle=2;fontSize=17;fontFamily=Verdana;fillColor=#ffe6cc;strokeColor=#d79b00;" vertex="1" parent="1">
          <mxGeometry x="290" y="90" width="230" height="120" as="geometry" />
        </mxCell>
        <mxCell id="VyV_slpJIuUIzBvri2z5-9" value="" style="shape=ext;double=1;rounded=1;whiteSpace=wrap;html=1;" vertex="1" parent="1">
          <mxGeometry x="271" y="637.5" width="286" height="500" as="geometry" />
        </mxCell>
        <mxCell id="VyV_slpJIuUIzBvri2z5-11" value="" style="shape=ext;double=1;rounded=1;whiteSpace=wrap;html=1;" vertex="1" parent="1">
          <mxGeometry x="286.75" y="700" width="221" height="30" as="geometry" />
        </mxCell>
        <mxCell id="VyV_slpJIuUIzBvri2z5-12" value="" style="shape=image;html=1;verticalLabelPosition=bottom;verticalAlign=top;imageAspect=1;aspect=fixed;image=https://cdn-icons-png.flaticon.com/512/2015/2015046.png;" vertex="1" parent="1">
          <mxGeometry x="514" y="700" width="30" height="30" as="geometry" />
        </mxCell>
        <mxCell id="VyV_slpJIuUIzBvri2z5-13" value="" style="shape=ext;double=1;rounded=1;whiteSpace=wrap;html=1;" vertex="1" parent="1">
          <mxGeometry x="580" y="240" width="260" height="110" as="geometry" />
        </mxCell>
        <mxCell id="VyV_slpJIuUIzBvri2z5-14" value="&lt;font style=&quot;font-size: 16px;&quot; face=&quot;Verdana&quot;&gt;&lt;i style=&quot;font-size: 16px;&quot;&gt;&lt;b style=&quot;font-size: 16px;&quot;&gt;APAGAR MATÉRIA PRIMA?&lt;/b&gt;&lt;/i&gt;&lt;/font&gt;" style="text;html=1;align=center;verticalAlign=middle;whiteSpace=wrap;rounded=0;fontSize=16;" vertex="1" parent="1">
          <mxGeometry x="580" y="250" width="255" height="40" as="geometry" />
        </mxCell>
        <mxCell id="VyV_slpJIuUIzBvri2z5-15" value="&lt;font face=&quot;Verdana&quot;&gt;&lt;b style=&quot;&quot;&gt;SIM&lt;/b&gt;&lt;/font&gt;" style="shape=ext;double=1;rounded=1;whiteSpace=wrap;html=1;fillColor=#d5e8d4;strokeColor=#82b366;" vertex="1" parent="1">
          <mxGeometry x="630" y="290" width="70" height="40" as="geometry" />
        </mxCell>
        <mxCell id="VyV_slpJIuUIzBvri2z5-16" value="&lt;font face=&quot;Verdana&quot;&gt;&lt;b&gt;NÃO&lt;/b&gt;&lt;/font&gt;" style="shape=ext;double=1;rounded=1;whiteSpace=wrap;html=1;fillColor=#f8cecc;strokeColor=#b85450;" vertex="1" parent="1">
          <mxGeometry x="720" y="290" width="70" height="40" as="geometry" />
        </mxCell>
        <mxCell id="VyV_slpJIuUIzBvri2z5-17" value="&lt;font face=&quot;Verdana&quot;&gt;&lt;b&gt;CONFIRMAR&lt;/b&gt;&lt;/font&gt;" style="shape=ext;double=1;rounded=1;whiteSpace=wrap;html=1;fillColor=#d5e8d4;strokeColor=#82b366;" vertex="1" parent="1">
          <mxGeometry x="335.25" y="510" width="139.5" height="40" as="geometry" />
        </mxCell>
        <mxCell id="VyV_slpJIuUIzBvri2z5-20" value="" style="shape=ext;double=1;rounded=1;whiteSpace=wrap;html=1;" vertex="1" parent="1">
          <mxGeometry x="580" y="630" width="286" height="500" as="geometry" />
        </mxCell>
        <mxCell id="VyV_slpJIuUIzBvri2z5-21" value="" style="shape=ext;double=1;rounded=1;whiteSpace=wrap;html=1;" vertex="1" parent="1">
          <mxGeometry x="580" y="120" width="260" height="110" as="geometry" />
        </mxCell>
        <mxCell id="VyV_slpJIuUIzBvri2z5-22" value="ATUALIZAR DADOS&amp;nbsp;&lt;div style=&quot;font-size: 16px;&quot;&gt;DA MATÉRIA PRIMA?&lt;/div&gt;" style="text;html=1;align=center;verticalAlign=middle;whiteSpace=wrap;rounded=0;fontFamily=Verdana;fontStyle=3;fontSize=16;" vertex="1" parent="1">
          <mxGeometry x="610" y="135" width="200" height="30" as="geometry" />
        </mxCell>
        <mxCell id="VyV_slpJIuUIzBvri2z5-23" value="&lt;font face=&quot;Verdana&quot;&gt;&lt;b style=&quot;&quot;&gt;SIM&lt;/b&gt;&lt;/font&gt;" style="shape=ext;double=1;rounded=1;whiteSpace=wrap;html=1;fillColor=#d5e8d4;strokeColor=#82b366;" vertex="1" parent="1">
          <mxGeometry x="630" y="180" width="70" height="40" as="geometry" />
        </mxCell>
        <mxCell id="VyV_slpJIuUIzBvri2z5-24" value="&lt;font face=&quot;Verdana&quot;&gt;&lt;b&gt;NÃO&lt;/b&gt;&lt;/font&gt;" style="shape=ext;double=1;rounded=1;whiteSpace=wrap;html=1;fillColor=#f8cecc;strokeColor=#b85450;" vertex="1" parent="1">
          <mxGeometry x="720" y="180" width="70" height="40" as="geometry" />
        </mxCell>
        <mxCell id="VyV_slpJIuUIzBvri2z5-25" value="" style="shape=ext;double=1;rounded=1;whiteSpace=wrap;html=1;" vertex="1" parent="1">
          <mxGeometry x="580" y="380" width="260" height="110" as="geometry" />
        </mxCell>
        <mxCell id="VyV_slpJIuUIzBvri2z5-26" value="&lt;font face=&quot;Verdana&quot;&gt;CONFIRMAR?&lt;/font&gt;" style="text;html=1;align=center;verticalAlign=middle;whiteSpace=wrap;rounded=0;fontStyle=3;fontSize=19;fontFamily=Helvetica;" vertex="1" parent="1">
          <mxGeometry x="680" y="390" width="60" height="30" as="geometry" />
        </mxCell>
        <mxCell id="VyV_slpJIuUIzBvri2z5-27" value="&lt;font face=&quot;Verdana&quot;&gt;&lt;b style=&quot;&quot;&gt;SIM&lt;/b&gt;&lt;/font&gt;" style="shape=ext;double=1;rounded=1;whiteSpace=wrap;html=1;fillColor=#d5e8d4;strokeColor=#82b366;" vertex="1" parent="1">
          <mxGeometry x="625" y="430" width="70" height="40" as="geometry" />
        </mxCell>
        <mxCell id="VyV_slpJIuUIzBvri2z5-28" value="&lt;font face=&quot;Verdana&quot;&gt;&lt;b&gt;NÃO&lt;/b&gt;&lt;/font&gt;" style="shape=ext;double=1;rounded=1;whiteSpace=wrap;html=1;fillColor=#f8cecc;strokeColor=#b85450;" vertex="1" parent="1">
          <mxGeometry x="720" y="430" width="70" height="40" as="geometry" />
        </mxCell>
        <mxCell id="VyV_slpJIuUIzBvri2z5-29" value="" style="shape=ext;double=1;rounded=1;whiteSpace=wrap;html=1;" vertex="1" parent="1">
          <mxGeometry x="866" y="240" width="204" height="230" as="geometry" />
        </mxCell>
        <mxCell id="VyV_slpJIuUIzBvri2z5-30" value="DADOS INVÁLIDOS" style="text;html=1;align=center;verticalAlign=middle;whiteSpace=wrap;rounded=0;fontStyle=3;fontFamily=Verdana;fontSize=18;" vertex="1" parent="1">
          <mxGeometry x="876" y="260" width="194" height="50" as="geometry" />
        </mxCell>
        <mxCell id="VyV_slpJIuUIzBvri2z5-31" value="" style="verticalLabelPosition=bottom;verticalAlign=top;html=1;shape=mxgraph.basic.x;fillColor=#FF0000;strokeColor=#b85450;" vertex="1" parent="1">
          <mxGeometry x="946" y="320" width="54" height="50" as="geometry" />
        </mxCell>
        <mxCell id="VyV_slpJIuUIzBvri2z5-32" value="&lt;font face=&quot;Verdana&quot;&gt;&lt;b&gt;VOLTAR&lt;/b&gt;&lt;/font&gt;" style="shape=ext;double=1;rounded=1;whiteSpace=wrap;html=1;fillColor=#d5e8d4;strokeColor=#82b366;" vertex="1" parent="1">
          <mxGeometry x="903.25" y="400" width="139.5" height="40" as="geometry" />
        </mxCell>
        <mxCell id="VyV_slpJIuUIzBvri2z5-33" value="NOME:" style="text;html=1;align=center;verticalAlign=middle;whiteSpace=wrap;rounded=0;fontStyle=1;fontFamily=Comic Sans MS;fontSize=14;" vertex="1" parent="1">
          <mxGeometry x="550" y="782.5" width="130" height="20" as="geometry" />
        </mxCell>
        <mxCell id="VyV_slpJIuUIzBvri2z5-34" value="UNIDADE:" style="text;html=1;align=center;verticalAlign=middle;whiteSpace=wrap;rounded=0;fontFamily=Comic Sans MS;fontStyle=1;fontSize=14;" vertex="1" parent="1">
          <mxGeometry x="593" y="840" width="60" height="30" as="geometry" />
        </mxCell>
        <mxCell id="VyV_slpJIuUIzBvri2z5-35" value="QUANTIDADE:" style="text;html=1;align=center;verticalAlign=middle;whiteSpace=wrap;rounded=0;fontFamily=Comic Sans MS;fontStyle=1;fontSize=14;" vertex="1" parent="1">
          <mxGeometry x="605" y="905" width="70" height="30" as="geometry" />
        </mxCell>
        <UserObject label="" treeRoot="1" id="VyV_slpJIuUIzBvri2z5-36">
          <mxCell style="whiteSpace=wrap;html=1;align=center;treeFolding=1;treeMoving=1;newEdgeStyle={&quot;edgeStyle&quot;:&quot;elbowEdgeStyle&quot;,&quot;startArrow&quot;:&quot;none&quot;,&quot;endArrow&quot;:&quot;none&quot;};" vertex="1" parent="1">
            <mxGeometry x="695" y="895" width="155" height="35" as="geometry" />
          </mxCell>
        </UserObject>
        <UserObject label="(43) 99012-3456" treeRoot="1" id="VyV_slpJIuUIzBvri2z5-37">
          <mxCell style="whiteSpace=wrap;html=1;align=center;treeFolding=1;treeMoving=1;newEdgeStyle={&quot;edgeStyle&quot;:&quot;elbowEdgeStyle&quot;,&quot;startArrow&quot;:&quot;none&quot;,&quot;endArrow&quot;:&quot;none&quot;};" vertex="1" parent="1">
            <mxGeometry x="660" y="840" width="190" height="30" as="geometry" />
          </mxCell>
        </UserObject>
        <UserObject label="SN Embalagens" treeRoot="1" id="VyV_slpJIuUIzBvri2z5-38">
          <mxCell style="whiteSpace=wrap;html=1;align=center;treeFolding=1;treeMoving=1;newEdgeStyle={&quot;edgeStyle&quot;:&quot;elbowEdgeStyle&quot;,&quot;startArrow&quot;:&quot;none&quot;,&quot;endArrow&quot;:&quot;none&quot;};" vertex="1" parent="1">
            <mxGeometry x="640" y="775" width="205" height="35" as="geometry" />
          </mxCell>
        </UserObject>
        <mxCell id="VyV_slpJIuUIzBvri2z5-39" value="" style="ellipse;shape=cloud;whiteSpace=wrap;html=1;fillColor=#FFE6CC;strokeColor=#FF8000;" vertex="1" parent="1">
          <mxGeometry x="585" y="637.5" width="260" height="105" as="geometry" />
        </mxCell>
        <mxCell id="VyV_slpJIuUIzBvri2z5-40" value="&lt;font face=&quot;Verdana&quot;&gt;ATUALIZAR&amp;nbsp;&lt;/font&gt;&lt;div&gt;&lt;font face=&quot;Verdana&quot;&gt;MATÉRIA PRIMA&lt;/font&gt;&lt;/div&gt;" style="text;html=1;align=center;verticalAlign=middle;whiteSpace=wrap;rounded=0;fontStyle=3;fontSize=19;fontFamily=Georgia;" vertex="1" parent="1">
          <mxGeometry x="588" y="675" width="265" height="30" as="geometry" />
        </mxCell>
        <mxCell id="VyV_slpJIuUIzBvri2z5-41" value="&lt;font face=&quot;Verdana&quot;&gt;&lt;b&gt;CONFIRMAR&lt;/b&gt;&lt;/font&gt;" style="shape=ext;double=1;rounded=1;whiteSpace=wrap;html=1;fillColor=#d5e8d4;strokeColor=#82b366;" vertex="1" parent="1">
          <mxGeometry x="650.5" y="1060" width="139.5" height="40" as="geometry" />
        </mxCell>
        <mxCell id="VyV_slpJIuUIzBvri2z5-42" value="&lt;div&gt;&lt;br&gt;&lt;/div&gt;" style="shape=ext;double=1;rounded=1;whiteSpace=wrap;html=1;" vertex="1" parent="1">
          <mxGeometry x="890" y="635" width="280" height="500" as="geometry" />
        </mxCell>
        <mxCell id="VyV_slpJIuUIzBvri2z5-43" value="&lt;h1 style=&quot;font-size: 19px;&quot;&gt;&lt;font face=&quot;Verdana&quot; style=&quot;font-size: 19px;&quot;&gt;CADASTRO&amp;nbsp;&lt;/font&gt;DE&amp;nbsp;&lt;/h1&gt;&lt;h1 style=&quot;font-size: 19px;&quot;&gt;MATÉRIA PRIMA&lt;/h1&gt;" style="ellipse;shape=cloud;whiteSpace=wrap;html=1;fontStyle=2;fontSize=19;fontFamily=Verdana;fillColor=#FFE6CC;strokeColor=#FF8000;" vertex="1" parent="1">
          <mxGeometry x="890" y="632.5" width="259" height="135" as="geometry" />
        </mxCell>
        <mxCell id="VyV_slpJIuUIzBvri2z5-44" value="NOME:" style="text;html=1;align=center;verticalAlign=middle;whiteSpace=wrap;rounded=0;fontStyle=1;fontFamily=Comic Sans MS;fontSize=15;" vertex="1" parent="1">
          <mxGeometry x="903.25" y="780" width="70" height="30" as="geometry" />
        </mxCell>
        <mxCell id="VyV_slpJIuUIzBvri2z5-45" value="UNIDADE:" style="text;html=1;align=center;verticalAlign=middle;whiteSpace=wrap;rounded=0;fontFamily=Comic Sans MS;fontStyle=1;fontSize=14;" vertex="1" parent="1">
          <mxGeometry x="908.25" y="850" width="60" height="30" as="geometry" />
        </mxCell>
        <UserObject label="" treeRoot="1" id="VyV_slpJIuUIzBvri2z5-46">
          <mxCell style="whiteSpace=wrap;html=1;align=center;treeFolding=1;treeMoving=1;newEdgeStyle={&quot;edgeStyle&quot;:&quot;elbowEdgeStyle&quot;,&quot;startArrow&quot;:&quot;none&quot;,&quot;endArrow&quot;:&quot;none&quot;};" vertex="1" parent="1">
            <mxGeometry x="1010" y="910" width="139" height="30" as="geometry" />
          </mxCell>
        </UserObject>
        <UserObject label="(43) 99012-3456" treeRoot="1" id="VyV_slpJIuUIzBvri2z5-47">
          <mxCell style="whiteSpace=wrap;html=1;align=center;treeFolding=1;treeMoving=1;newEdgeStyle={&quot;edgeStyle&quot;:&quot;elbowEdgeStyle&quot;,&quot;startArrow&quot;:&quot;none&quot;,&quot;endArrow&quot;:&quot;none&quot;};" vertex="1" parent="1">
            <mxGeometry x="984.5" y="850" width="170" height="30" as="geometry" />
          </mxCell>
        </UserObject>
        <UserObject label="SN Embalagens" treeRoot="1" id="VyV_slpJIuUIzBvri2z5-48">
          <mxCell style="whiteSpace=wrap;html=1;align=center;treeFolding=1;treeMoving=1;newEdgeStyle={&quot;edgeStyle&quot;:&quot;elbowEdgeStyle&quot;,&quot;startArrow&quot;:&quot;none&quot;,&quot;endArrow&quot;:&quot;none&quot;};" vertex="1" parent="1">
            <mxGeometry x="984.5" y="780" width="171" height="35" as="geometry" />
          </mxCell>
        </UserObject>
        <mxCell id="VyV_slpJIuUIzBvri2z5-49" value="&lt;font face=&quot;Verdana&quot;&gt;&lt;b&gt;CONFIRMAR&lt;/b&gt;&lt;/font&gt;" style="shape=ext;double=1;rounded=1;whiteSpace=wrap;html=1;fillColor=#d5e8d4;strokeColor=#82b366;" vertex="1" parent="1">
          <mxGeometry x="960.25" y="1060" width="139.5" height="40" as="geometry" />
        </mxCell>
        <mxCell id="VyV_slpJIuUIzBvri2z5-50" value="CÓDIGO:" style="text;html=1;align=center;verticalAlign=middle;whiteSpace=wrap;rounded=0;fontFamily=Comic Sans MS;fontStyle=1;fontSize=14;" vertex="1" parent="1">
          <mxGeometry x="593" y="1000" width="60" height="30" as="geometry" />
        </mxCell>
        <UserObject label="12.345.678/9101-23" treeRoot="1" id="VyV_slpJIuUIzBvri2z5-51">
          <mxCell style="whiteSpace=wrap;html=1;align=center;treeFolding=1;treeMoving=1;newEdgeStyle={&quot;edgeStyle&quot;:&quot;elbowEdgeStyle&quot;,&quot;startArrow&quot;:&quot;none&quot;,&quot;endArrow&quot;:&quot;none&quot;};" vertex="1" parent="1">
            <mxGeometry x="660" y="1000" width="194.5" height="30" as="geometry" />
          </mxCell>
        </UserObject>
        <mxCell id="VyV_slpJIuUIzBvri2z5-52" value="QUANTIDADE:" style="text;html=1;align=center;verticalAlign=middle;whiteSpace=wrap;rounded=0;fontFamily=Comic Sans MS;fontStyle=1;fontSize=14;" vertex="1" parent="1">
          <mxGeometry x="914.5" y="910" width="70" height="30" as="geometry" />
        </mxCell>
        <mxCell id="VyV_slpJIuUIzBvri2z5-53" value="&lt;b style=&quot;font-size: 14px;&quot;&gt;&lt;font style=&quot;font-size: 14px;&quot; face=&quot;Comic Sans MS&quot;&gt;CÓDIGO:&lt;/font&gt;&lt;/b&gt;" style="text;html=1;align=center;verticalAlign=middle;whiteSpace=wrap;rounded=0;fontSize=14;" vertex="1" parent="1">
          <mxGeometry x="898.25" y="970" width="70" height="30" as="geometry" />
        </mxCell>
        <UserObject label="12.345.678/9101-23" treeRoot="1" id="VyV_slpJIuUIzBvri2z5-54">
          <mxCell style="whiteSpace=wrap;html=1;align=center;treeFolding=1;treeMoving=1;newEdgeStyle={&quot;edgeStyle&quot;:&quot;elbowEdgeStyle&quot;,&quot;startArrow&quot;:&quot;none&quot;,&quot;endArrow&quot;:&quot;none&quot;};fillColor=#f8cecc;strokeColor=#FF0000;" vertex="1" parent="1">
            <mxGeometry x="968.25" y="970" width="194.5" height="30" as="geometry" />
          </mxCell>
        </UserObject>
        <mxCell id="VyV_slpJIuUIzBvri2z5-55" value="&lt;b style=&quot;font-size: 14px;&quot;&gt;&lt;font style=&quot;font-size: 14px;&quot; face=&quot;Comic Sans MS&quot;&gt;COR:&lt;/font&gt;&lt;/b&gt;" style="text;html=1;align=center;verticalAlign=middle;whiteSpace=wrap;rounded=0;fontSize=14;" vertex="1" parent="1">
          <mxGeometry x="289" y="400" width="60" height="30" as="geometry" />
        </mxCell>
        <UserObject label="" treeRoot="1" id="VyV_slpJIuUIzBvri2z5-56">
          <mxCell style="whiteSpace=wrap;html=1;align=center;treeFolding=1;treeMoving=1;newEdgeStyle={&quot;edgeStyle&quot;:&quot;elbowEdgeStyle&quot;,&quot;startArrow&quot;:&quot;none&quot;,&quot;endArrow&quot;:&quot;none&quot;};" vertex="1" parent="1">
            <mxGeometry x="370" y="400" width="160" height="30" as="geometry" />
          </mxCell>
        </UserObject>
        <mxCell id="VyV_slpJIuUIzBvri2z5-57" value="CÓDIGO:" style="text;html=1;align=center;verticalAlign=middle;whiteSpace=wrap;rounded=0;fontFamily=Comic Sans MS;fontStyle=1;fontSize=14;" vertex="1" parent="1">
          <mxGeometry x="289" y="450" width="60" height="30" as="geometry" />
        </mxCell>
        <mxCell id="VyV_slpJIuUIzBvri2z5-135" value="Assets" style="childLayout=tableLayout;recursiveResize=0;strokeColor=#98bf21;fillColor=#A7C942;shadow=1;" vertex="1" parent="1">
          <mxGeometry x="284" y="748" width="260" height="157" as="geometry" />
        </mxCell>
        <mxCell id="VyV_slpJIuUIzBvri2z5-136" style="shape=tableRow;horizontal=0;startSize=0;swimlaneHead=0;swimlaneBody=0;top=0;left=0;bottom=0;right=0;dropTarget=0;collapsible=0;recursiveResize=0;expand=0;fontStyle=0;strokeColor=inherit;fillColor=#ffffff;" vertex="1" parent="VyV_slpJIuUIzBvri2z5-135">
          <mxGeometry width="260" height="35" as="geometry" />
        </mxCell>
        <mxCell id="VyV_slpJIuUIzBvri2z5-137" value="ITEM" style="connectable=0;recursiveResize=0;strokeColor=inherit;fillColor=#A7C942;align=center;fontStyle=1;fontColor=#FFFFFF;html=1;" vertex="1" parent="VyV_slpJIuUIzBvri2z5-136">
          <mxGeometry width="86" height="35" as="geometry">
            <mxRectangle width="86" height="35" as="alternateBounds" />
          </mxGeometry>
        </mxCell>
        <mxCell id="VyV_slpJIuUIzBvri2z5-138" value="QUANTIDADE" style="connectable=0;recursiveResize=0;strokeColor=inherit;fillColor=#A7C942;align=center;fontStyle=1;fontColor=#FFFFFF;html=1;" vertex="1" parent="VyV_slpJIuUIzBvri2z5-136">
          <mxGeometry x="86" width="88" height="35" as="geometry">
            <mxRectangle width="88" height="35" as="alternateBounds" />
          </mxGeometry>
        </mxCell>
        <mxCell id="VyV_slpJIuUIzBvri2z5-139" value="UNIDADE" style="connectable=0;recursiveResize=0;strokeColor=inherit;fillColor=#A7C942;align=center;fontStyle=1;fontColor=#FFFFFF;html=1;" vertex="1" parent="VyV_slpJIuUIzBvri2z5-136">
          <mxGeometry x="174" width="86" height="35" as="geometry">
            <mxRectangle width="86" height="35" as="alternateBounds" />
          </mxGeometry>
        </mxCell>
        <mxCell id="VyV_slpJIuUIzBvri2z5-140" value="" style="shape=tableRow;horizontal=0;startSize=0;swimlaneHead=0;swimlaneBody=0;top=0;left=0;bottom=0;right=0;dropTarget=0;collapsible=0;recursiveResize=0;expand=0;fontStyle=0;strokeColor=inherit;fillColor=#ffffff;" vertex="1" parent="VyV_slpJIuUIzBvri2z5-135">
          <mxGeometry y="35" width="260" height="30" as="geometry" />
        </mxCell>
        <mxCell id="VyV_slpJIuUIzBvri2z5-141" value="XXX" style="connectable=0;recursiveResize=0;strokeColor=inherit;fillColor=inherit;align=center;whiteSpace=wrap;html=1;" vertex="1" parent="VyV_slpJIuUIzBvri2z5-140">
          <mxGeometry width="86" height="30" as="geometry">
            <mxRectangle width="86" height="30" as="alternateBounds" />
          </mxGeometry>
        </mxCell>
        <mxCell id="VyV_slpJIuUIzBvri2z5-142" value="1" style="connectable=0;recursiveResize=0;strokeColor=inherit;fillColor=inherit;align=center;whiteSpace=wrap;html=1;" vertex="1" parent="VyV_slpJIuUIzBvri2z5-140">
          <mxGeometry x="86" width="88" height="30" as="geometry">
            <mxRectangle width="88" height="30" as="alternateBounds" />
          </mxGeometry>
        </mxCell>
        <mxCell id="VyV_slpJIuUIzBvri2z5-143" value="KG" style="connectable=0;recursiveResize=0;strokeColor=inherit;fillColor=inherit;align=center;whiteSpace=wrap;html=1;" vertex="1" parent="VyV_slpJIuUIzBvri2z5-140">
          <mxGeometry x="174" width="86" height="30" as="geometry">
            <mxRectangle width="86" height="30" as="alternateBounds" />
          </mxGeometry>
        </mxCell>
        <mxCell id="VyV_slpJIuUIzBvri2z5-144" value="" style="shape=tableRow;horizontal=0;startSize=0;swimlaneHead=0;swimlaneBody=0;top=0;left=0;bottom=0;right=0;dropTarget=0;collapsible=0;recursiveResize=0;expand=0;fontStyle=1;strokeColor=inherit;fillColor=#EAF2D3;" vertex="1" parent="VyV_slpJIuUIzBvri2z5-135">
          <mxGeometry y="65" width="260" height="30" as="geometry" />
        </mxCell>
        <mxCell id="VyV_slpJIuUIzBvri2z5-145" value="XXX" style="connectable=0;recursiveResize=0;strokeColor=inherit;fillColor=inherit;whiteSpace=wrap;html=1;" vertex="1" parent="VyV_slpJIuUIzBvri2z5-144">
          <mxGeometry width="86" height="30" as="geometry">
            <mxRectangle width="86" height="30" as="alternateBounds" />
          </mxGeometry>
        </mxCell>
        <mxCell id="VyV_slpJIuUIzBvri2z5-146" value="2" style="connectable=0;recursiveResize=0;strokeColor=inherit;fillColor=inherit;whiteSpace=wrap;html=1;" vertex="1" parent="VyV_slpJIuUIzBvri2z5-144">
          <mxGeometry x="86" width="88" height="30" as="geometry">
            <mxRectangle width="88" height="30" as="alternateBounds" />
          </mxGeometry>
        </mxCell>
        <mxCell id="VyV_slpJIuUIzBvri2z5-147" value="METRO" style="connectable=0;recursiveResize=0;strokeColor=inherit;fillColor=inherit;whiteSpace=wrap;html=1;" vertex="1" parent="VyV_slpJIuUIzBvri2z5-144">
          <mxGeometry x="174" width="86" height="30" as="geometry">
            <mxRectangle width="86" height="30" as="alternateBounds" />
          </mxGeometry>
        </mxCell>
        <mxCell id="VyV_slpJIuUIzBvri2z5-148" value="" style="shape=tableRow;horizontal=0;startSize=0;swimlaneHead=0;swimlaneBody=0;top=0;left=0;bottom=0;right=0;dropTarget=0;collapsible=0;recursiveResize=0;expand=0;fontStyle=0;strokeColor=inherit;fillColor=#ffffff;" vertex="1" parent="VyV_slpJIuUIzBvri2z5-135">
          <mxGeometry y="95" width="260" height="32" as="geometry" />
        </mxCell>
        <mxCell id="VyV_slpJIuUIzBvri2z5-149" value="XXX" style="connectable=0;recursiveResize=0;strokeColor=inherit;fillColor=inherit;fontStyle=0;align=center;whiteSpace=wrap;html=1;" vertex="1" parent="VyV_slpJIuUIzBvri2z5-148">
          <mxGeometry width="86" height="32" as="geometry">
            <mxRectangle width="86" height="32" as="alternateBounds" />
          </mxGeometry>
        </mxCell>
        <mxCell id="VyV_slpJIuUIzBvri2z5-150" value="3" style="connectable=0;recursiveResize=0;strokeColor=inherit;fillColor=inherit;fontStyle=0;align=center;whiteSpace=wrap;html=1;" vertex="1" parent="VyV_slpJIuUIzBvri2z5-148">
          <mxGeometry x="86" width="88" height="32" as="geometry">
            <mxRectangle width="88" height="32" as="alternateBounds" />
          </mxGeometry>
        </mxCell>
        <mxCell id="VyV_slpJIuUIzBvri2z5-151" value="PEÇA" style="connectable=0;recursiveResize=0;strokeColor=inherit;fillColor=inherit;fontStyle=0;align=center;whiteSpace=wrap;html=1;" vertex="1" parent="VyV_slpJIuUIzBvri2z5-148">
          <mxGeometry x="174" width="86" height="32" as="geometry">
            <mxRectangle width="86" height="32" as="alternateBounds" />
          </mxGeometry>
        </mxCell>
        <mxCell id="VyV_slpJIuUIzBvri2z5-152" value="" style="shape=tableRow;horizontal=0;startSize=0;swimlaneHead=0;swimlaneBody=0;top=0;left=0;bottom=0;right=0;dropTarget=0;collapsible=0;recursiveResize=0;expand=0;fontStyle=1;strokeColor=inherit;fillColor=#EAF2D3;" vertex="1" parent="VyV_slpJIuUIzBvri2z5-135">
          <mxGeometry y="127" width="260" height="30" as="geometry" />
        </mxCell>
        <mxCell id="VyV_slpJIuUIzBvri2z5-153" value="XXX" style="connectable=0;recursiveResize=0;strokeColor=inherit;fillColor=inherit;whiteSpace=wrap;html=1;" vertex="1" parent="VyV_slpJIuUIzBvri2z5-152">
          <mxGeometry width="86" height="30" as="geometry">
            <mxRectangle width="86" height="30" as="alternateBounds" />
          </mxGeometry>
        </mxCell>
        <mxCell id="VyV_slpJIuUIzBvri2z5-154" value="4" style="connectable=0;recursiveResize=0;strokeColor=inherit;fillColor=inherit;whiteSpace=wrap;html=1;" vertex="1" parent="VyV_slpJIuUIzBvri2z5-152">
          <mxGeometry x="86" width="88" height="30" as="geometry">
            <mxRectangle width="88" height="30" as="alternateBounds" />
          </mxGeometry>
        </mxCell>
        <mxCell id="VyV_slpJIuUIzBvri2z5-155" value="GRAMAS" style="connectable=0;recursiveResize=0;strokeColor=inherit;fillColor=inherit;whiteSpace=wrap;html=1;" vertex="1" parent="VyV_slpJIuUIzBvri2z5-152">
          <mxGeometry x="174" width="86" height="30" as="geometry">
            <mxRectangle width="86" height="30" as="alternateBounds" />
          </mxGeometry>
        </mxCell>
        <mxCell id="VyV_slpJIuUIzBvri2z5-158" value="Assets" style="childLayout=tableLayout;recursiveResize=0;strokeColor=#98bf21;fillColor=transparent;shadow=1;" vertex="1" parent="1">
          <mxGeometry x="284" y="905" width="260" height="133" as="geometry" />
        </mxCell>
        <mxCell id="VyV_slpJIuUIzBvri2z5-163" value="" style="shape=tableRow;horizontal=0;startSize=0;swimlaneHead=0;swimlaneBody=0;top=0;left=0;bottom=0;right=0;dropTarget=0;collapsible=0;recursiveResize=0;expand=0;fontStyle=0;strokeColor=inherit;fillColor=#ffffff;" vertex="1" parent="VyV_slpJIuUIzBvri2z5-158">
          <mxGeometry width="260" height="30" as="geometry" />
        </mxCell>
        <mxCell id="VyV_slpJIuUIzBvri2z5-164" value="XXX" style="connectable=0;recursiveResize=0;strokeColor=inherit;fillColor=inherit;align=center;whiteSpace=wrap;html=1;" vertex="1" parent="VyV_slpJIuUIzBvri2z5-163">
          <mxGeometry width="86" height="30" as="geometry">
            <mxRectangle width="86" height="30" as="alternateBounds" />
          </mxGeometry>
        </mxCell>
        <mxCell id="VyV_slpJIuUIzBvri2z5-165" value="5" style="connectable=0;recursiveResize=0;strokeColor=inherit;fillColor=inherit;align=center;whiteSpace=wrap;html=1;" vertex="1" parent="VyV_slpJIuUIzBvri2z5-163">
          <mxGeometry x="86" width="88" height="30" as="geometry">
            <mxRectangle width="88" height="30" as="alternateBounds" />
          </mxGeometry>
        </mxCell>
        <mxCell id="VyV_slpJIuUIzBvri2z5-166" value="CM" style="connectable=0;recursiveResize=0;strokeColor=inherit;fillColor=inherit;align=center;whiteSpace=wrap;html=1;" vertex="1" parent="VyV_slpJIuUIzBvri2z5-163">
          <mxGeometry x="174" width="86" height="30" as="geometry">
            <mxRectangle width="86" height="30" as="alternateBounds" />
          </mxGeometry>
        </mxCell>
        <mxCell id="VyV_slpJIuUIzBvri2z5-167" value="" style="shape=tableRow;horizontal=0;startSize=0;swimlaneHead=0;swimlaneBody=0;top=0;left=0;bottom=0;right=0;dropTarget=0;collapsible=0;recursiveResize=0;expand=0;fontStyle=1;strokeColor=inherit;fillColor=#EAF2D3;" vertex="1" parent="VyV_slpJIuUIzBvri2z5-158">
          <mxGeometry y="30" width="260" height="30" as="geometry" />
        </mxCell>
        <mxCell id="VyV_slpJIuUIzBvri2z5-168" value="XXX" style="connectable=0;recursiveResize=0;strokeColor=inherit;fillColor=inherit;whiteSpace=wrap;html=1;" vertex="1" parent="VyV_slpJIuUIzBvri2z5-167">
          <mxGeometry width="86" height="30" as="geometry">
            <mxRectangle width="86" height="30" as="alternateBounds" />
          </mxGeometry>
        </mxCell>
        <mxCell id="VyV_slpJIuUIzBvri2z5-169" value="6" style="connectable=0;recursiveResize=0;strokeColor=inherit;fillColor=inherit;whiteSpace=wrap;html=1;" vertex="1" parent="VyV_slpJIuUIzBvri2z5-167">
          <mxGeometry x="86" width="88" height="30" as="geometry">
            <mxRectangle width="88" height="30" as="alternateBounds" />
          </mxGeometry>
        </mxCell>
        <mxCell id="VyV_slpJIuUIzBvri2z5-170" value="ML" style="connectable=0;recursiveResize=0;strokeColor=inherit;fillColor=inherit;whiteSpace=wrap;html=1;" vertex="1" parent="VyV_slpJIuUIzBvri2z5-167">
          <mxGeometry x="174" width="86" height="30" as="geometry">
            <mxRectangle width="86" height="30" as="alternateBounds" />
          </mxGeometry>
        </mxCell>
        <mxCell id="VyV_slpJIuUIzBvri2z5-171" value="" style="shape=tableRow;horizontal=0;startSize=0;swimlaneHead=0;swimlaneBody=0;top=0;left=0;bottom=0;right=0;dropTarget=0;collapsible=0;recursiveResize=0;expand=0;fontStyle=0;strokeColor=inherit;fillColor=#ffffff;" vertex="1" parent="VyV_slpJIuUIzBvri2z5-158">
          <mxGeometry y="60" width="260" height="37" as="geometry" />
        </mxCell>
        <mxCell id="VyV_slpJIuUIzBvri2z5-172" value="XXX" style="connectable=0;recursiveResize=0;strokeColor=inherit;fillColor=inherit;fontStyle=0;align=center;whiteSpace=wrap;html=1;" vertex="1" parent="VyV_slpJIuUIzBvri2z5-171">
          <mxGeometry width="86" height="37" as="geometry">
            <mxRectangle width="86" height="37" as="alternateBounds" />
          </mxGeometry>
        </mxCell>
        <mxCell id="VyV_slpJIuUIzBvri2z5-173" value="7" style="connectable=0;recursiveResize=0;strokeColor=inherit;fillColor=inherit;fontStyle=0;align=center;whiteSpace=wrap;html=1;" vertex="1" parent="VyV_slpJIuUIzBvri2z5-171">
          <mxGeometry x="86" width="88" height="37" as="geometry">
            <mxRectangle width="88" height="37" as="alternateBounds" />
          </mxGeometry>
        </mxCell>
        <mxCell id="VyV_slpJIuUIzBvri2z5-174" value="LITROS" style="connectable=0;recursiveResize=0;strokeColor=inherit;fillColor=inherit;fontStyle=0;align=center;whiteSpace=wrap;html=1;" vertex="1" parent="VyV_slpJIuUIzBvri2z5-171">
          <mxGeometry x="174" width="86" height="37" as="geometry">
            <mxRectangle width="86" height="37" as="alternateBounds" />
          </mxGeometry>
        </mxCell>
        <mxCell id="VyV_slpJIuUIzBvri2z5-175" value="" style="shape=tableRow;horizontal=0;startSize=0;swimlaneHead=0;swimlaneBody=0;top=0;left=0;bottom=0;right=0;dropTarget=0;collapsible=0;recursiveResize=0;expand=0;fontStyle=1;strokeColor=inherit;fillColor=#EAF2D3;" vertex="1" parent="VyV_slpJIuUIzBvri2z5-158">
          <mxGeometry y="97" width="260" height="36" as="geometry" />
        </mxCell>
        <mxCell id="VyV_slpJIuUIzBvri2z5-176" value="XXX" style="connectable=0;recursiveResize=0;strokeColor=inherit;fillColor=inherit;whiteSpace=wrap;html=1;" vertex="1" parent="VyV_slpJIuUIzBvri2z5-175">
          <mxGeometry width="86" height="36" as="geometry">
            <mxRectangle width="86" height="36" as="alternateBounds" />
          </mxGeometry>
        </mxCell>
        <mxCell id="VyV_slpJIuUIzBvri2z5-177" value="8" style="connectable=0;recursiveResize=0;strokeColor=inherit;fillColor=inherit;whiteSpace=wrap;html=1;" vertex="1" parent="VyV_slpJIuUIzBvri2z5-175">
          <mxGeometry x="86" width="88" height="36" as="geometry">
            <mxRectangle width="88" height="36" as="alternateBounds" />
          </mxGeometry>
        </mxCell>
        <mxCell id="VyV_slpJIuUIzBvri2z5-178" value="METRO CÚBICO" style="connectable=0;recursiveResize=0;strokeColor=inherit;fillColor=inherit;whiteSpace=wrap;html=1;" vertex="1" parent="VyV_slpJIuUIzBvri2z5-175">
          <mxGeometry x="174" width="86" height="36" as="geometry">
            <mxRectangle width="86" height="36" as="alternateBounds" />
          </mxGeometry>
        </mxCell>
        <mxCell id="VyV_slpJIuUIzBvri2z5-185" value="LISTA DE MATÉRIA PRIMA" style="text;html=1;align=center;verticalAlign=middle;whiteSpace=wrap;rounded=0;fontFamily=Verdana;fontStyle=3;fontSize=16;" vertex="1" parent="1">
          <mxGeometry x="289" y="660" width="248.5" height="30" as="geometry" />
        </mxCell>
        <mxCell id="VyV_slpJIuUIzBvri2z5-186" value="COR:" style="text;html=1;align=center;verticalAlign=middle;whiteSpace=wrap;rounded=0;fontFamily=Helvetica;fontSize=12;fontColor=#FFFFFF;fontStyle=1;labelBackgroundColor=none;" vertex="1" parent="1">
          <mxGeometry x="593" y="950" width="60" height="30" as="geometry" />
        </mxCell>
        <mxCell id="VyV_slpJIuUIzBvri2z5-188" value="COR:" style="text;html=1;align=center;verticalAlign=middle;whiteSpace=wrap;rounded=0;fontStyle=1;fontFamily=Comic Sans MS;fontSize=15;" vertex="1" parent="1">
          <mxGeometry x="544" y="960" width="130" height="20" as="geometry" />
        </mxCell>
        <mxCell id="VyV_slpJIuUIzBvri2z5-192" value="" style="rounded=0;whiteSpace=wrap;html=1;align=center;verticalAlign=middle;fontFamily=Helvetica;fontSize=12;fontStyle=1;" vertex="1" parent="1">
          <mxGeometry x="633" y="950" width="217" height="30" as="geometry" />
        </mxCell>
        <UserObject label="" treeRoot="1" id="VyV_slpJIuUIzBvri2z5-195">
          <mxCell style="whiteSpace=wrap;html=1;align=center;treeFolding=1;treeMoving=1;newEdgeStyle={&quot;edgeStyle&quot;:&quot;elbowEdgeStyle&quot;,&quot;startArrow&quot;:&quot;none&quot;,&quot;endArrow&quot;:&quot;none&quot;};" vertex="1" parent="1">
            <mxGeometry x="356.75" y="450" width="173.25" height="30" as="geometry" />
          </mxCell>
        </UserObject>
        <UserObject label="" treeRoot="1" id="VyV_slpJIuUIzBvri2z5-197">
          <mxCell style="whiteSpace=wrap;html=1;align=center;treeFolding=1;treeMoving=1;newEdgeStyle={&quot;edgeStyle&quot;:&quot;elbowEdgeStyle&quot;,&quot;startArrow&quot;:&quot;none&quot;,&quot;endArrow&quot;:&quot;none&quot;};" vertex="1" parent="1">
            <mxGeometry x="971" y="1020" width="189" height="30" as="geometry" />
          </mxCell>
        </UserObject>
        <mxCell id="VyV_slpJIuUIzBvri2z5-198" value="&lt;b style=&quot;font-size: 14px;&quot;&gt;&lt;font style=&quot;font-size: 14px;&quot; face=&quot;Comic Sans MS&quot;&gt;COR:&lt;/font&gt;&lt;/b&gt;" style="text;html=1;align=center;verticalAlign=middle;whiteSpace=wrap;rounded=0;fontSize=14;" vertex="1" parent="1">
          <mxGeometry x="908.25" y="1020" width="70" height="30" as="geometry" />
        </mxCell>
      </root>
    </mxGraphModel>
  </diagram>
  <diagram id="tduwbQGylIdH2SsbEqgE" name="Página-4">
    <mxGraphModel dx="2049" dy="1117" grid="1" gridSize="10" guides="1" tooltips="1" connect="1" arrows="1" fold="1" page="1" pageScale="1" pageWidth="827" pageHeight="1169" math="0" shadow="0">
      <root>
        <mxCell id="0" />
        <mxCell id="1" parent="0" />
        <mxCell id="CAdDWoIcTp8BbaXPkYkz-1" value="" style="shape=ext;double=1;rounded=1;whiteSpace=wrap;html=1;" vertex="1" parent="1">
          <mxGeometry x="271" y="90" width="280" height="500" as="geometry" />
        </mxCell>
        <UserObject label="" treeRoot="1" id="CAdDWoIcTp8BbaXPkYkz-2">
          <mxCell style="whiteSpace=wrap;html=1;align=center;treeFolding=1;treeMoving=1;newEdgeStyle={&quot;edgeStyle&quot;:&quot;elbowEdgeStyle&quot;,&quot;startArrow&quot;:&quot;none&quot;,&quot;endArrow&quot;:&quot;none&quot;};" vertex="1" parent="1">
            <mxGeometry x="370" y="220" width="160" height="30" as="geometry" />
          </mxCell>
        </UserObject>
        <mxCell id="CAdDWoIcTp8BbaXPkYkz-3" value="NOME:" style="text;html=1;align=center;verticalAlign=middle;whiteSpace=wrap;rounded=0;fontStyle=1;fontFamily=Comic Sans MS;fontSize=15;" vertex="1" parent="1">
          <mxGeometry x="286.75" y="220" width="70" height="30" as="geometry" />
        </mxCell>
        <mxCell id="CAdDWoIcTp8BbaXPkYkz-4" value="TELEFONE:" style="text;html=1;align=center;verticalAlign=middle;whiteSpace=wrap;rounded=0;fontFamily=Comic Sans MS;fontStyle=1;fontSize=14;" vertex="1" parent="1">
          <mxGeometry x="292.5" y="280" width="60" height="30" as="geometry" />
        </mxCell>
        <UserObject label="" treeRoot="1" id="CAdDWoIcTp8BbaXPkYkz-5">
          <mxCell style="whiteSpace=wrap;html=1;align=center;treeFolding=1;treeMoving=1;newEdgeStyle={&quot;edgeStyle&quot;:&quot;elbowEdgeStyle&quot;,&quot;startArrow&quot;:&quot;none&quot;,&quot;endArrow&quot;:&quot;none&quot;};" vertex="1" parent="1">
            <mxGeometry x="370" y="280" width="160" height="30" as="geometry" />
          </mxCell>
        </UserObject>
        <mxCell id="CAdDWoIcTp8BbaXPkYkz-6" value="E-MAIL:" style="text;html=1;align=center;verticalAlign=middle;whiteSpace=wrap;rounded=0;fontFamily=Comic Sans MS;fontStyle=1;fontSize=14;" vertex="1" parent="1">
          <mxGeometry x="289" y="340" width="65" height="30" as="geometry" />
        </mxCell>
        <UserObject label="" treeRoot="1" id="CAdDWoIcTp8BbaXPkYkz-7">
          <mxCell style="whiteSpace=wrap;html=1;align=center;treeFolding=1;treeMoving=1;newEdgeStyle={&quot;edgeStyle&quot;:&quot;elbowEdgeStyle&quot;,&quot;startArrow&quot;:&quot;none&quot;,&quot;endArrow&quot;:&quot;none&quot;};" vertex="1" parent="1">
            <mxGeometry x="370" y="340" width="160" height="30" as="geometry" />
          </mxCell>
        </UserObject>
        <mxCell id="CAdDWoIcTp8BbaXPkYkz-8" value="&lt;h1 style=&quot;font-size: 17px;&quot;&gt;CADASTRO DO PRODUTO&lt;/h1&gt;" style="ellipse;shape=cloud;whiteSpace=wrap;html=1;fontStyle=2;fontSize=17;fontFamily=Verdana;fillColor=#ffe6cc;strokeColor=#d79b00;" vertex="1" parent="1">
          <mxGeometry x="290" y="90" width="230" height="120" as="geometry" />
        </mxCell>
        <mxCell id="CAdDWoIcTp8BbaXPkYkz-9" value="" style="shape=ext;double=1;rounded=1;whiteSpace=wrap;html=1;" vertex="1" parent="1">
          <mxGeometry x="274" y="630" width="286" height="500" as="geometry" />
        </mxCell>
        <mxCell id="CAdDWoIcTp8BbaXPkYkz-10" value="&lt;h1 style=&quot;font-size: 19px;&quot;&gt;&lt;i&gt;LISTA DE FORNECEDORES&lt;/i&gt;&lt;/h1&gt;" style="ellipse;shape=cloud;whiteSpace=wrap;html=1;fontSize=15;fillColor=#FFE6CC;strokeColor=#FF8000;fontFamily=Verdana;" vertex="1" parent="1">
          <mxGeometry x="278.75" y="635" width="270" height="117.5" as="geometry" />
        </mxCell>
        <mxCell id="CAdDWoIcTp8BbaXPkYkz-11" value="SN..." style="shape=ext;double=1;rounded=1;whiteSpace=wrap;html=1;" vertex="1" parent="1">
          <mxGeometry x="290" y="767.5" width="221" height="30" as="geometry" />
        </mxCell>
        <mxCell id="CAdDWoIcTp8BbaXPkYkz-12" value="" style="shape=image;html=1;verticalLabelPosition=bottom;verticalAlign=top;imageAspect=1;aspect=fixed;image=https://cdn-icons-png.flaticon.com/512/2015/2015046.png;" vertex="1" parent="1">
          <mxGeometry x="520" y="767.5" width="30" height="30" as="geometry" />
        </mxCell>
        <mxCell id="CAdDWoIcTp8BbaXPkYkz-13" value="" style="shape=ext;double=1;rounded=1;whiteSpace=wrap;html=1;" vertex="1" parent="1">
          <mxGeometry x="580" y="240" width="260" height="110" as="geometry" />
        </mxCell>
        <mxCell id="CAdDWoIcTp8BbaXPkYkz-14" value="&lt;font style=&quot;font-size: 16px;&quot; face=&quot;Verdana&quot;&gt;&lt;i style=&quot;font-size: 16px;&quot;&gt;&lt;b style=&quot;font-size: 16px;&quot;&gt;APAGAR FORNECEDOR?&lt;/b&gt;&lt;/i&gt;&lt;/font&gt;" style="text;html=1;align=center;verticalAlign=middle;whiteSpace=wrap;rounded=0;fontSize=16;" vertex="1" parent="1">
          <mxGeometry x="625" y="250" width="170" height="40" as="geometry" />
        </mxCell>
        <mxCell id="CAdDWoIcTp8BbaXPkYkz-15" value="&lt;font face=&quot;Verdana&quot;&gt;&lt;b style=&quot;&quot;&gt;SIM&lt;/b&gt;&lt;/font&gt;" style="shape=ext;double=1;rounded=1;whiteSpace=wrap;html=1;fillColor=#d5e8d4;strokeColor=#82b366;" vertex="1" parent="1">
          <mxGeometry x="630" y="290" width="70" height="40" as="geometry" />
        </mxCell>
        <mxCell id="CAdDWoIcTp8BbaXPkYkz-16" value="&lt;font face=&quot;Verdana&quot;&gt;&lt;b&gt;NÃO&lt;/b&gt;&lt;/font&gt;" style="shape=ext;double=1;rounded=1;whiteSpace=wrap;html=1;fillColor=#f8cecc;strokeColor=#b85450;" vertex="1" parent="1">
          <mxGeometry x="720" y="290" width="70" height="40" as="geometry" />
        </mxCell>
        <mxCell id="CAdDWoIcTp8BbaXPkYkz-17" value="&lt;font face=&quot;Verdana&quot;&gt;&lt;b&gt;CONFIRMAR&lt;/b&gt;&lt;/font&gt;" style="shape=ext;double=1;rounded=1;whiteSpace=wrap;html=1;fillColor=#d5e8d4;strokeColor=#82b366;" vertex="1" parent="1">
          <mxGeometry x="344" y="530" width="139.5" height="40" as="geometry" />
        </mxCell>
        <mxCell id="CAdDWoIcTp8BbaXPkYkz-18" value="&lt;ul style=&quot;font-size: 16px;&quot;&gt;&lt;li style=&quot;font-size: 16px;&quot;&gt;&lt;b&gt;SN Embalagens&lt;/b&gt;&lt;/li&gt;&lt;/ul&gt;" style="text;strokeColor=none;fillColor=none;html=1;whiteSpace=wrap;verticalAlign=middle;overflow=hidden;fontSize=16;" vertex="1" parent="1">
          <mxGeometry x="274" y="805" width="211" height="40" as="geometry" />
        </mxCell>
        <mxCell id="CAdDWoIcTp8BbaXPkYkz-19" value="" style="shape=image;html=1;verticalLabelPosition=bottom;verticalAlign=top;imageAspect=0;image=https://cdn-icons-png.flaticon.com/512/269/269074.png;" vertex="1" parent="1">
          <mxGeometry x="449.5" y="815" width="30" height="30" as="geometry" />
        </mxCell>
        <mxCell id="CAdDWoIcTp8BbaXPkYkz-20" value="" style="shape=ext;double=1;rounded=1;whiteSpace=wrap;html=1;" vertex="1" parent="1">
          <mxGeometry x="580" y="630" width="286" height="500" as="geometry" />
        </mxCell>
        <mxCell id="CAdDWoIcTp8BbaXPkYkz-21" value="" style="shape=ext;double=1;rounded=1;whiteSpace=wrap;html=1;" vertex="1" parent="1">
          <mxGeometry x="580" y="120" width="260" height="110" as="geometry" />
        </mxCell>
        <mxCell id="CAdDWoIcTp8BbaXPkYkz-22" value="ATUALIZAR DADOS&amp;nbsp;&lt;div style=&quot;font-size: 16px;&quot;&gt;DO FORNECEDOR?&lt;/div&gt;" style="text;html=1;align=center;verticalAlign=middle;whiteSpace=wrap;rounded=0;fontFamily=Verdana;fontStyle=3;fontSize=16;" vertex="1" parent="1">
          <mxGeometry x="620" y="140" width="190" height="30" as="geometry" />
        </mxCell>
        <mxCell id="CAdDWoIcTp8BbaXPkYkz-23" value="&lt;font face=&quot;Verdana&quot;&gt;&lt;b style=&quot;&quot;&gt;SIM&lt;/b&gt;&lt;/font&gt;" style="shape=ext;double=1;rounded=1;whiteSpace=wrap;html=1;fillColor=#d5e8d4;strokeColor=#82b366;" vertex="1" parent="1">
          <mxGeometry x="630" y="180" width="70" height="40" as="geometry" />
        </mxCell>
        <mxCell id="CAdDWoIcTp8BbaXPkYkz-24" value="&lt;font face=&quot;Verdana&quot;&gt;&lt;b&gt;NÃO&lt;/b&gt;&lt;/font&gt;" style="shape=ext;double=1;rounded=1;whiteSpace=wrap;html=1;fillColor=#f8cecc;strokeColor=#b85450;" vertex="1" parent="1">
          <mxGeometry x="720" y="180" width="70" height="40" as="geometry" />
        </mxCell>
        <mxCell id="CAdDWoIcTp8BbaXPkYkz-25" value="" style="shape=ext;double=1;rounded=1;whiteSpace=wrap;html=1;" vertex="1" parent="1">
          <mxGeometry x="580" y="380" width="260" height="110" as="geometry" />
        </mxCell>
        <mxCell id="CAdDWoIcTp8BbaXPkYkz-26" value="&lt;font face=&quot;Verdana&quot;&gt;CONFIRMAR?&lt;/font&gt;" style="text;html=1;align=center;verticalAlign=middle;whiteSpace=wrap;rounded=0;fontStyle=3;fontSize=19;fontFamily=Helvetica;" vertex="1" parent="1">
          <mxGeometry x="680" y="390" width="60" height="30" as="geometry" />
        </mxCell>
        <mxCell id="CAdDWoIcTp8BbaXPkYkz-27" value="&lt;font face=&quot;Verdana&quot;&gt;&lt;b style=&quot;&quot;&gt;SIM&lt;/b&gt;&lt;/font&gt;" style="shape=ext;double=1;rounded=1;whiteSpace=wrap;html=1;fillColor=#d5e8d4;strokeColor=#82b366;" vertex="1" parent="1">
          <mxGeometry x="625" y="430" width="70" height="40" as="geometry" />
        </mxCell>
        <mxCell id="CAdDWoIcTp8BbaXPkYkz-28" value="&lt;font face=&quot;Verdana&quot;&gt;&lt;b&gt;NÃO&lt;/b&gt;&lt;/font&gt;" style="shape=ext;double=1;rounded=1;whiteSpace=wrap;html=1;fillColor=#f8cecc;strokeColor=#b85450;" vertex="1" parent="1">
          <mxGeometry x="720" y="430" width="70" height="40" as="geometry" />
        </mxCell>
        <mxCell id="CAdDWoIcTp8BbaXPkYkz-29" value="" style="shape=ext;double=1;rounded=1;whiteSpace=wrap;html=1;" vertex="1" parent="1">
          <mxGeometry x="866" y="240" width="204" height="230" as="geometry" />
        </mxCell>
        <mxCell id="CAdDWoIcTp8BbaXPkYkz-30" value="DADOS INVÁLIDOS" style="text;html=1;align=center;verticalAlign=middle;whiteSpace=wrap;rounded=0;fontStyle=3;fontFamily=Verdana;fontSize=18;" vertex="1" parent="1">
          <mxGeometry x="876" y="260" width="194" height="50" as="geometry" />
        </mxCell>
        <mxCell id="CAdDWoIcTp8BbaXPkYkz-31" value="" style="verticalLabelPosition=bottom;verticalAlign=top;html=1;shape=mxgraph.basic.x;fillColor=#FF0000;strokeColor=#b85450;" vertex="1" parent="1">
          <mxGeometry x="946" y="320" width="54" height="50" as="geometry" />
        </mxCell>
        <mxCell id="CAdDWoIcTp8BbaXPkYkz-32" value="&lt;font face=&quot;Verdana&quot;&gt;&lt;b&gt;VOLTAR&lt;/b&gt;&lt;/font&gt;" style="shape=ext;double=1;rounded=1;whiteSpace=wrap;html=1;fillColor=#d5e8d4;strokeColor=#82b366;" vertex="1" parent="1">
          <mxGeometry x="903.25" y="400" width="139.5" height="40" as="geometry" />
        </mxCell>
        <mxCell id="CAdDWoIcTp8BbaXPkYkz-33" value="RAZÃO&lt;div style=&quot;font-size: 14px;&quot;&gt;&amp;nbsp;SOCIAL:&lt;/div&gt;" style="text;html=1;align=center;verticalAlign=middle;whiteSpace=wrap;rounded=0;fontStyle=1;fontFamily=Comic Sans MS;fontSize=14;" vertex="1" parent="1">
          <mxGeometry x="565" y="785" width="130" height="20" as="geometry" />
        </mxCell>
        <mxCell id="CAdDWoIcTp8BbaXPkYkz-34" value="TELEFONE:" style="text;html=1;align=center;verticalAlign=middle;whiteSpace=wrap;rounded=0;fontFamily=Comic Sans MS;fontStyle=1;fontSize=14;" vertex="1" parent="1">
          <mxGeometry x="603" y="840" width="60" height="30" as="geometry" />
        </mxCell>
        <mxCell id="CAdDWoIcTp8BbaXPkYkz-35" value="E-MAIL:" style="text;html=1;align=center;verticalAlign=middle;whiteSpace=wrap;rounded=0;fontFamily=Comic Sans MS;fontStyle=1;fontSize=14;" vertex="1" parent="1">
          <mxGeometry x="593" y="905" width="70" height="30" as="geometry" />
        </mxCell>
        <UserObject label="SNembalagens2024@gmail.com" treeRoot="1" id="CAdDWoIcTp8BbaXPkYkz-36">
          <mxCell style="whiteSpace=wrap;html=1;align=center;treeFolding=1;treeMoving=1;newEdgeStyle={&quot;edgeStyle&quot;:&quot;elbowEdgeStyle&quot;,&quot;startArrow&quot;:&quot;none&quot;,&quot;endArrow&quot;:&quot;none&quot;};" vertex="1" parent="1">
            <mxGeometry x="663" y="900" width="190" height="40" as="geometry" />
          </mxCell>
        </UserObject>
        <UserObject label="(43) 99012-3456" treeRoot="1" id="CAdDWoIcTp8BbaXPkYkz-37">
          <mxCell style="whiteSpace=wrap;html=1;align=center;treeFolding=1;treeMoving=1;newEdgeStyle={&quot;edgeStyle&quot;:&quot;elbowEdgeStyle&quot;,&quot;startArrow&quot;:&quot;none&quot;,&quot;endArrow&quot;:&quot;none&quot;};" vertex="1" parent="1">
            <mxGeometry x="680" y="840" width="160" height="30" as="geometry" />
          </mxCell>
        </UserObject>
        <UserObject label="SN Embalagens" treeRoot="1" id="CAdDWoIcTp8BbaXPkYkz-38">
          <mxCell style="whiteSpace=wrap;html=1;align=center;treeFolding=1;treeMoving=1;newEdgeStyle={&quot;edgeStyle&quot;:&quot;elbowEdgeStyle&quot;,&quot;startArrow&quot;:&quot;none&quot;,&quot;endArrow&quot;:&quot;none&quot;};" vertex="1" parent="1">
            <mxGeometry x="675" y="775" width="170" height="35" as="geometry" />
          </mxCell>
        </UserObject>
        <mxCell id="CAdDWoIcTp8BbaXPkYkz-39" value="" style="ellipse;shape=cloud;whiteSpace=wrap;html=1;fillColor=#FFE6CC;strokeColor=#FF8000;" vertex="1" parent="1">
          <mxGeometry x="585" y="637.5" width="260" height="105" as="geometry" />
        </mxCell>
        <mxCell id="CAdDWoIcTp8BbaXPkYkz-40" value="&lt;font face=&quot;Verdana&quot;&gt;ATUALIZAR&amp;nbsp;&lt;/font&gt;&lt;div&gt;&lt;font face=&quot;Verdana&quot;&gt;CADASTRO&lt;/font&gt;&lt;/div&gt;" style="text;html=1;align=center;verticalAlign=middle;whiteSpace=wrap;rounded=0;fontStyle=3;fontSize=19;fontFamily=Georgia;" vertex="1" parent="1">
          <mxGeometry x="588" y="675" width="265" height="30" as="geometry" />
        </mxCell>
        <mxCell id="CAdDWoIcTp8BbaXPkYkz-41" value="&lt;font face=&quot;Verdana&quot;&gt;&lt;b&gt;CONFIRMAR&lt;/b&gt;&lt;/font&gt;" style="shape=ext;double=1;rounded=1;whiteSpace=wrap;html=1;fillColor=#d5e8d4;strokeColor=#82b366;" vertex="1" parent="1">
          <mxGeometry x="650.5" y="1040" width="139.5" height="40" as="geometry" />
        </mxCell>
        <mxCell id="CAdDWoIcTp8BbaXPkYkz-42" value="&lt;div&gt;&lt;br&gt;&lt;/div&gt;" style="shape=ext;double=1;rounded=1;whiteSpace=wrap;html=1;" vertex="1" parent="1">
          <mxGeometry x="890" y="635" width="280" height="500" as="geometry" />
        </mxCell>
        <mxCell id="CAdDWoIcTp8BbaXPkYkz-43" value="&lt;h1 style=&quot;font-size: 19px;&quot;&gt;&lt;font face=&quot;Verdana&quot; style=&quot;font-size: 19px;&quot;&gt;CADASTRO&amp;nbsp;&lt;/font&gt;&lt;/h1&gt;&lt;h1 style=&quot;font-size: 19px;&quot;&gt;&lt;font style=&quot;font-size: 19px;&quot;&gt;DE FORNECEDOR&lt;/font&gt;&lt;/h1&gt;" style="ellipse;shape=cloud;whiteSpace=wrap;html=1;fontStyle=2;fontSize=19;fontFamily=Verdana;fillColor=#FFE6CC;strokeColor=#FF8000;" vertex="1" parent="1">
          <mxGeometry x="890" y="632.5" width="259" height="135" as="geometry" />
        </mxCell>
        <mxCell id="CAdDWoIcTp8BbaXPkYkz-44" value="RAZÃO SOCIAL" style="text;html=1;align=center;verticalAlign=middle;whiteSpace=wrap;rounded=0;fontStyle=1;fontFamily=Comic Sans MS;fontSize=15;" vertex="1" parent="1">
          <mxGeometry x="903.25" y="780" width="70" height="30" as="geometry" />
        </mxCell>
        <mxCell id="CAdDWoIcTp8BbaXPkYkz-45" value="TELEFONE:" style="text;html=1;align=center;verticalAlign=middle;whiteSpace=wrap;rounded=0;fontFamily=Comic Sans MS;fontStyle=1;fontSize=14;" vertex="1" parent="1">
          <mxGeometry x="908.25" y="850" width="60" height="30" as="geometry" />
        </mxCell>
        <UserObject label="SNembalagens2024@gmail.com" treeRoot="1" id="CAdDWoIcTp8BbaXPkYkz-46">
          <mxCell style="whiteSpace=wrap;html=1;align=center;treeFolding=1;treeMoving=1;newEdgeStyle={&quot;edgeStyle&quot;:&quot;elbowEdgeStyle&quot;,&quot;startArrow&quot;:&quot;none&quot;,&quot;endArrow&quot;:&quot;none&quot;};" vertex="1" parent="1">
            <mxGeometry x="970" y="920" width="185.5" height="30" as="geometry" />
          </mxCell>
        </UserObject>
        <UserObject label="(43) 99012-3456" treeRoot="1" id="CAdDWoIcTp8BbaXPkYkz-47">
          <mxCell style="whiteSpace=wrap;html=1;align=center;treeFolding=1;treeMoving=1;newEdgeStyle={&quot;edgeStyle&quot;:&quot;elbowEdgeStyle&quot;,&quot;startArrow&quot;:&quot;none&quot;,&quot;endArrow&quot;:&quot;none&quot;};" vertex="1" parent="1">
            <mxGeometry x="984.5" y="850" width="170" height="30" as="geometry" />
          </mxCell>
        </UserObject>
        <UserObject label="SN Embalagens" treeRoot="1" id="CAdDWoIcTp8BbaXPkYkz-48">
          <mxCell style="whiteSpace=wrap;html=1;align=center;treeFolding=1;treeMoving=1;newEdgeStyle={&quot;edgeStyle&quot;:&quot;elbowEdgeStyle&quot;,&quot;startArrow&quot;:&quot;none&quot;,&quot;endArrow&quot;:&quot;none&quot;};" vertex="1" parent="1">
            <mxGeometry x="984.5" y="780" width="171" height="35" as="geometry" />
          </mxCell>
        </UserObject>
        <mxCell id="CAdDWoIcTp8BbaXPkYkz-49" value="&lt;font face=&quot;Verdana&quot;&gt;&lt;b&gt;CONFIRMAR&lt;/b&gt;&lt;/font&gt;" style="shape=ext;double=1;rounded=1;whiteSpace=wrap;html=1;fillColor=#d5e8d4;strokeColor=#82b366;" vertex="1" parent="1">
          <mxGeometry x="960.25" y="1050" width="139.5" height="40" as="geometry" />
        </mxCell>
        <mxCell id="CAdDWoIcTp8BbaXPkYkz-50" value="CNPJ:" style="text;html=1;align=center;verticalAlign=middle;whiteSpace=wrap;rounded=0;fontFamily=Comic Sans MS;fontStyle=1;fontSize=14;" vertex="1" parent="1">
          <mxGeometry x="593" y="970" width="60" height="30" as="geometry" />
        </mxCell>
        <UserObject label="12.345.678/9101-23" treeRoot="1" id="CAdDWoIcTp8BbaXPkYkz-51">
          <mxCell style="whiteSpace=wrap;html=1;align=center;treeFolding=1;treeMoving=1;newEdgeStyle={&quot;edgeStyle&quot;:&quot;elbowEdgeStyle&quot;,&quot;startArrow&quot;:&quot;none&quot;,&quot;endArrow&quot;:&quot;none&quot;};" vertex="1" parent="1">
            <mxGeometry x="655" y="970" width="194.5" height="30" as="geometry" />
          </mxCell>
        </UserObject>
        <mxCell id="CAdDWoIcTp8BbaXPkYkz-52" value="E-MAIL:" style="text;html=1;align=center;verticalAlign=middle;whiteSpace=wrap;rounded=0;fontFamily=Comic Sans MS;fontStyle=1;fontSize=14;" vertex="1" parent="1">
          <mxGeometry x="898.25" y="920" width="70" height="30" as="geometry" />
        </mxCell>
        <mxCell id="CAdDWoIcTp8BbaXPkYkz-53" value="&lt;b style=&quot;font-size: 14px;&quot;&gt;&lt;font style=&quot;font-size: 14px;&quot; face=&quot;Comic Sans MS&quot;&gt;CNPJ:&lt;/font&gt;&lt;/b&gt;" style="text;html=1;align=center;verticalAlign=middle;whiteSpace=wrap;rounded=0;fontSize=14;" vertex="1" parent="1">
          <mxGeometry x="898.25" y="980" width="70" height="30" as="geometry" />
        </mxCell>
        <UserObject label="12.345.678/9101-23" treeRoot="1" id="CAdDWoIcTp8BbaXPkYkz-54">
          <mxCell style="whiteSpace=wrap;html=1;align=center;treeFolding=1;treeMoving=1;newEdgeStyle={&quot;edgeStyle&quot;:&quot;elbowEdgeStyle&quot;,&quot;startArrow&quot;:&quot;none&quot;,&quot;endArrow&quot;:&quot;none&quot;};fillColor=#f8cecc;strokeColor=#FF0000;" vertex="1" parent="1">
            <mxGeometry x="965.5" y="980" width="194.5" height="30" as="geometry" />
          </mxCell>
        </UserObject>
        <mxCell id="CAdDWoIcTp8BbaXPkYkz-55" value="&lt;b style=&quot;font-size: 14px;&quot;&gt;&lt;font style=&quot;font-size: 14px;&quot; face=&quot;Comic Sans MS&quot;&gt;CNPJ:&lt;/font&gt;&lt;/b&gt;" style="text;html=1;align=center;verticalAlign=middle;whiteSpace=wrap;rounded=0;fontSize=14;" vertex="1" parent="1">
          <mxGeometry x="289" y="400" width="60" height="30" as="geometry" />
        </mxCell>
        <UserObject label="" treeRoot="1" id="CAdDWoIcTp8BbaXPkYkz-56">
          <mxCell style="whiteSpace=wrap;html=1;align=center;treeFolding=1;treeMoving=1;newEdgeStyle={&quot;edgeStyle&quot;:&quot;elbowEdgeStyle&quot;,&quot;startArrow&quot;:&quot;none&quot;,&quot;endArrow&quot;:&quot;none&quot;};" vertex="1" parent="1">
            <mxGeometry x="370" y="400" width="160" height="30" as="geometry" />
          </mxCell>
        </UserObject>
        <mxCell id="CAdDWoIcTp8BbaXPkYkz-57" value="MATÉRIA PRIMA:" style="text;html=1;align=center;verticalAlign=middle;whiteSpace=wrap;rounded=0;fontFamily=Comic Sans MS;fontStyle=1;fontSize=14;" vertex="1" parent="1">
          <mxGeometry x="289" y="450" width="60" height="30" as="geometry" />
        </mxCell>
        <mxCell id="CAdDWoIcTp8BbaXPkYkz-58" value="" style="rounded=1;whiteSpace=wrap;html=1;" vertex="1" parent="1">
          <mxGeometry x="365" y="450" width="165" height="70" as="geometry" />
        </mxCell>
        <mxCell id="CAdDWoIcTp8BbaXPkYkz-59" value="&lt;b&gt;&lt;font style=&quot;font-size: 17px;&quot; face=&quot;Comic Sans MS&quot;&gt;+&lt;/font&gt;&lt;/b&gt;" style="whiteSpace=wrap;html=1;aspect=fixed;" vertex="1" parent="1">
          <mxGeometry x="501.5" y="460" width="20" height="20" as="geometry" />
        </mxCell>
        <mxCell id="CAdDWoIcTp8BbaXPkYkz-60" value="" style="line;strokeWidth=2;html=1;" vertex="1" parent="1">
          <mxGeometry x="365" y="430" width="165" height="110" as="geometry" />
        </mxCell>
        <mxCell id="CAdDWoIcTp8BbaXPkYkz-61" value="" style="shape=ext;double=1;rounded=1;whiteSpace=wrap;html=1;" vertex="1" parent="1">
          <mxGeometry x="1109.69" y="230" width="230" height="310" as="geometry" />
        </mxCell>
        <mxCell id="CAdDWoIcTp8BbaXPkYkz-62" value="&lt;h1 style=&quot;font-size: 17px;&quot;&gt;MATÉRIA&amp;nbsp;&lt;/h1&gt;&lt;h1 style=&quot;font-size: 17px;&quot;&gt;PRIMA&lt;/h1&gt;" style="ellipse;shape=cloud;whiteSpace=wrap;html=1;fontStyle=2;fontSize=17;fontFamily=Verdana;fillColor=#FFE6CC;strokeColor=#FF8000;" vertex="1" parent="1">
          <mxGeometry x="1119.5" y="240" width="210.25" height="85" as="geometry" />
        </mxCell>
        <mxCell id="CAdDWoIcTp8BbaXPkYkz-63" value="" style="rounded=0;whiteSpace=wrap;html=1;" vertex="1" parent="1">
          <mxGeometry x="1119.63" y="340" width="210.12" height="30" as="geometry" />
        </mxCell>
        <mxCell id="CAdDWoIcTp8BbaXPkYkz-64" value="" style="line;strokeWidth=2;direction=south;html=1;" vertex="1" parent="1">
          <mxGeometry x="1290" y="340" width="10" height="30" as="geometry" />
        </mxCell>
        <mxCell id="CAdDWoIcTp8BbaXPkYkz-65" value="+" style="text;html=1;align=center;verticalAlign=middle;whiteSpace=wrap;rounded=0;fontSize=27;fontStyle=1;fontFamily=Comic Sans MS;" vertex="1" parent="1">
          <mxGeometry x="1279.69" y="340" width="60" height="30" as="geometry" />
        </mxCell>
        <mxCell id="CAdDWoIcTp8BbaXPkYkz-66" value="&lt;font face=&quot;Verdana&quot;&gt;&lt;b&gt;ADICIONAR&lt;/b&gt;&lt;/font&gt;" style="shape=ext;double=1;rounded=1;whiteSpace=wrap;html=1;fillColor=#d5e8d4;strokeColor=#82b366;" vertex="1" parent="1">
          <mxGeometry x="1160" y="410" width="139.5" height="40" as="geometry" />
        </mxCell>
        <mxCell id="CAdDWoIcTp8BbaXPkYkz-67" value="&lt;font face=&quot;Verdana&quot;&gt;&lt;b&gt;CANCELAR&lt;/b&gt;&lt;/font&gt;" style="shape=ext;double=1;rounded=1;whiteSpace=wrap;html=1;fillColor=#f8cecc;strokeColor=#b85450;" vertex="1" parent="1">
          <mxGeometry x="1157.3799999999999" y="465" width="144.74" height="40" as="geometry" />
        </mxCell>
        <mxCell id="CAdDWoIcTp8BbaXPkYkz-68" value="" style="shape=image;html=1;verticalLabelPosition=bottom;verticalAlign=top;imageAspect=0;image=https://i.pinimg.com/736x/39/b2/2a/39b22a6a39babe75252fdffeebe4e103.jpg;" vertex="1" parent="1">
          <mxGeometry x="497.25" y="490" width="28.5" height="30" as="geometry" />
        </mxCell>
      </root>
    </mxGraphModel>
  </diagram>
</mxfile>
